<?xml version="1.0" encoding="utf-8"?>
<!-- Generator: Adobe Illustrator 16.0.3, SVG Export Plug-In . SVG Version: 6.00 Build 0)  -->
<!DOCTYPE svg PUBLIC "-//W3C//DTD SVG 1.1//EN" "http://www.w3.org/Graphics/SVG/1.1/DTD/svg11.dtd">
<svg version="1.1" id="Layer_1" xmlns="http://www.w3.org/2000/svg" xmlns:xlink="http://www.w3.org/1999/xlink" x="0px" y="0px"
	 width="595.28px" height="841.89px" viewBox="0 0 595.28 841.89" enable-background="new 0 0 595.28 841.89" xml:space="preserve">
<g>
	<g>
		<path fill="#0178BF" d="M218.321,226.748c-0.853,0-1.619-0.131-2.298-0.394c-0.678-0.263-1.253-0.648-1.723-1.157
			c-0.47-0.509-0.832-1.13-1.083-1.863c-0.252-0.733-0.377-1.576-0.377-2.528c0-0.952,0.145-1.794,0.435-2.527
			c0.29-0.733,0.687-1.354,1.19-1.863c0.503-0.509,1.094-0.895,1.772-1.157c0.678-0.263,1.405-0.394,2.183-0.394
			c0.47,0,0.897,0.035,1.28,0.106c0.383,0.071,0.716,0.15,1.001,0.238c0.284,0.088,0.52,0.181,0.706,0.279s0.317,0.169,0.394,0.213
			l-0.607,1.69c-0.263-0.165-0.638-0.32-1.125-0.468c-0.487-0.148-1.015-0.222-1.584-0.222c-0.492,0-0.952,0.085-1.378,0.254
			c-0.427,0.17-0.796,0.424-1.108,0.763c-0.312,0.339-0.556,0.766-0.73,1.28c-0.175,0.514-0.263,1.111-0.263,1.789
			c0,0.602,0.068,1.155,0.205,1.658c0.137,0.504,0.348,0.938,0.632,1.305c0.284,0.367,0.646,0.651,1.083,0.854
			c0.438,0.203,0.963,0.304,1.576,0.304c0.733,0,1.329-0.074,1.789-0.222c0.459-0.147,0.815-0.287,1.067-0.418l0.558,1.69
			c-0.131,0.088-0.309,0.175-0.533,0.263c-0.225,0.087-0.49,0.172-0.796,0.254c-0.307,0.082-0.651,0.147-1.034,0.197
			C219.169,226.723,218.759,226.748,218.321,226.748z"/>
		<path fill="#0178BF" d="M245.73,220.807c0,0.974-0.145,1.833-0.435,2.577c-0.291,0.744-0.684,1.365-1.182,1.863
			c-0.498,0.498-1.081,0.873-1.748,1.125c-0.667,0.251-1.379,0.377-2.133,0.377c-0.755,0-1.469-0.125-2.142-0.377
			c-0.673-0.252-1.258-0.626-1.756-1.125c-0.498-0.498-0.895-1.119-1.19-1.863c-0.295-0.744-0.443-1.603-0.443-2.577
			c0-0.974,0.148-1.83,0.443-2.568c0.296-0.738,0.698-1.359,1.207-1.863s1.097-0.881,1.764-1.133
			c0.667-0.251,1.373-0.377,2.118-0.377c0.744,0,1.449,0.125,2.117,0.377c0.667,0.252,1.25,0.629,1.748,1.133
			c0.498,0.503,0.895,1.125,1.19,1.863S245.73,219.833,245.73,220.807z M236.852,220.807c0,0.624,0.077,1.19,0.23,1.699
			c0.153,0.509,0.375,0.941,0.665,1.296c0.29,0.356,0.643,0.632,1.059,0.829c0.416,0.197,0.886,0.295,1.412,0.295
			c0.514,0,0.979-0.098,1.395-0.295c0.416-0.197,0.769-0.473,1.059-0.829c0.29-0.355,0.511-0.788,0.665-1.296s0.23-1.075,0.23-1.699
			c0-0.624-0.077-1.19-0.23-1.699s-0.375-0.94-0.665-1.296c-0.29-0.355-0.643-0.632-1.059-0.829
			c-0.416-0.197-0.881-0.295-1.395-0.295c-0.525,0-0.996,0.098-1.412,0.295c-0.416,0.197-0.769,0.477-1.059,0.837
			c-0.29,0.361-0.512,0.793-0.665,1.296C236.928,219.62,236.852,220.183,236.852,220.807z"/>
		<path fill="#0178BF" d="M262.85,215.013c1.641,0,2.896,0.301,3.767,0.903s1.305,1.521,1.305,2.757
			c0,1.542-0.761,2.587-2.281,3.134c0.208,0.252,0.443,0.558,0.706,0.919c0.263,0.361,0.531,0.752,0.804,1.173
			s0.537,0.854,0.788,1.297c0.251,0.443,0.476,0.878,0.672,1.304h-2.314c-0.208-0.394-0.433-0.79-0.673-1.189
			c-0.241-0.399-0.484-0.788-0.73-1.166s-0.49-0.733-0.73-1.067c-0.24-0.333-0.465-0.632-0.673-0.894
			c-0.153,0.011-0.284,0.016-0.394,0.016s-0.213,0-0.312,0h-1.001v4.3h-2.068v-11.209c0.503-0.109,1.04-0.183,1.608-0.221
			S262.401,215.013,262.85,215.013z M262.997,216.802c-0.438,0-0.843,0.016-1.214,0.049v3.676h0.903
			c0.503,0,0.946-0.027,1.329-0.082c0.383-0.055,0.703-0.153,0.96-0.296c0.257-0.142,0.451-0.333,0.583-0.574
			c0.131-0.24,0.197-0.547,0.197-0.919c0-0.35-0.065-0.646-0.197-0.886c-0.132-0.241-0.32-0.432-0.566-0.575
			c-0.246-0.142-0.539-0.243-0.878-0.303C263.773,216.832,263.402,216.802,262.997,216.802z"/>
		<path fill="#0178BF" d="M285.072,215.013c1.642,0,2.897,0.301,3.767,0.903c0.87,0.602,1.305,1.521,1.305,2.757
			c0,1.542-0.761,2.587-2.281,3.134c0.208,0.252,0.443,0.558,0.706,0.919c0.262,0.361,0.53,0.752,0.805,1.173
			c0.272,0.421,0.536,0.854,0.787,1.297c0.252,0.443,0.476,0.878,0.673,1.304h-2.314c-0.208-0.394-0.432-0.79-0.673-1.189
			c-0.24-0.399-0.484-0.788-0.73-1.166c-0.246-0.377-0.49-0.733-0.73-1.067c-0.241-0.333-0.465-0.632-0.673-0.894
			c-0.154,0.011-0.285,0.016-0.395,0.016s-0.213,0-0.312,0h-1.001v4.3h-2.068v-11.209c0.503-0.109,1.039-0.183,1.608-0.221
			C284.115,215.032,284.624,215.013,285.072,215.013z M285.22,216.802c-0.438,0-0.842,0.016-1.214,0.049v3.676h0.902
			c0.503,0,0.947-0.027,1.33-0.082s0.703-0.153,0.96-0.296c0.257-0.142,0.452-0.333,0.583-0.574c0.131-0.24,0.197-0.547,0.197-0.919
			c0-0.35-0.065-0.646-0.197-0.886s-0.32-0.432-0.567-0.575c-0.246-0.142-0.539-0.243-0.877-0.303
			C285.997,216.832,285.625,216.802,285.22,216.802z"/>
		<path fill="#0178BF" d="M304.161,226.501v-11.374h7.304v1.756h-5.236v2.807h4.661v1.723h-4.661v3.332h5.63v1.756H304.161z"/>
		<path fill="#0178BF" d="M333.425,215.128v1.789h-3.495v9.584h-2.085v-9.584h-3.495v-1.789H333.425z"/>
		<path fill="#0178BF" d="M356.896,220.807c0,0.974-0.146,1.833-0.435,2.577c-0.29,0.744-0.684,1.365-1.182,1.863
			s-1.08,0.873-1.748,1.125c-0.668,0.251-1.379,0.377-2.134,0.377s-1.468-0.125-2.142-0.377c-0.673-0.252-1.259-0.626-1.756-1.125
			c-0.498-0.498-0.895-1.119-1.189-1.863c-0.296-0.744-0.444-1.603-0.444-2.577c0-0.974,0.148-1.83,0.444-2.568
			c0.295-0.738,0.697-1.359,1.205-1.863c0.51-0.503,1.098-0.881,1.765-1.133c0.667-0.251,1.374-0.377,2.117-0.377
			c0.744,0,1.45,0.125,2.117,0.377c0.667,0.252,1.25,0.629,1.747,1.133c0.499,0.503,0.896,1.125,1.191,1.863
			C356.748,218.977,356.896,219.833,356.896,220.807z M348.018,220.807c0,0.624,0.075,1.19,0.229,1.699
			c0.154,0.509,0.375,0.941,0.665,1.296c0.29,0.356,0.643,0.632,1.06,0.829c0.415,0.197,0.885,0.295,1.41,0.295
			c0.514,0,0.979-0.098,1.396-0.295c0.415-0.197,0.769-0.473,1.059-0.829c0.29-0.355,0.511-0.788,0.665-1.296
			c0.152-0.509,0.229-1.075,0.229-1.699c0-0.624-0.076-1.19-0.229-1.699c-0.154-0.509-0.375-0.94-0.665-1.296
			c-0.29-0.355-0.644-0.632-1.059-0.829c-0.416-0.197-0.882-0.295-1.396-0.295c-0.525,0-0.995,0.098-1.41,0.295
			c-0.417,0.197-0.77,0.477-1.06,0.837s-0.511,0.793-0.665,1.296C348.093,219.62,348.018,220.183,348.018,220.807z"/>
		<path fill="#0178BF" d="M374.014,215.013c1.642,0,2.897,0.301,3.768,0.903c0.869,0.602,1.305,1.521,1.305,2.757
			c0,1.542-0.762,2.587-2.281,3.134c0.207,0.252,0.443,0.558,0.705,0.919c0.263,0.361,0.531,0.752,0.805,1.173
			s0.536,0.854,0.787,1.297c0.252,0.443,0.477,0.878,0.674,1.304h-2.314c-0.208-0.394-0.432-0.79-0.673-1.189
			s-0.483-0.788-0.731-1.166c-0.246-0.377-0.488-0.733-0.729-1.067c-0.241-0.333-0.465-0.632-0.673-0.894
			c-0.153,0.011-0.285,0.016-0.395,0.016s-0.213,0-0.312,0h-1.001v4.3h-2.067v-11.209c0.503-0.109,1.039-0.183,1.608-0.221
			C373.057,215.032,373.565,215.013,374.014,215.013z M374.162,216.802c-0.438,0-0.843,0.016-1.215,0.049v3.676h0.902
			c0.504,0,0.947-0.027,1.33-0.082s0.703-0.153,0.959-0.296c0.258-0.142,0.453-0.333,0.584-0.574
			c0.131-0.24,0.197-0.547,0.197-0.919c0-0.35-0.066-0.646-0.197-0.886s-0.32-0.432-0.566-0.575
			c-0.246-0.142-0.539-0.243-0.879-0.303C374.939,216.832,374.566,216.802,374.162,216.802z"/>
		<path fill="#0178BF" d="M401.079,226.501c-0.153-0.448-0.313-0.892-0.478-1.329s-0.324-0.886-0.477-1.346h-4.805
			c-0.154,0.459-0.311,0.911-0.469,1.354c-0.16,0.443-0.316,0.883-0.469,1.321h-2.15c0.426-1.214,0.83-2.335,1.213-3.364
			c0.383-1.028,0.758-2.002,1.123-2.921c0.366-0.919,0.73-1.794,1.091-2.626s0.732-1.652,1.115-2.462h1.974
			c0.383,0.81,0.756,1.63,1.116,2.462c0.361,0.832,0.726,1.707,1.092,2.626c0.366,0.919,0.744,1.893,1.132,2.921
			c0.389,1.029,0.797,2.15,1.224,3.364H401.079z M397.723,217.327c-0.252,0.581-0.539,1.286-0.862,2.118
			c-0.323,0.832-0.659,1.734-1.009,2.708h3.742c-0.352-0.974-0.689-1.882-1.018-2.724
			C398.248,218.585,397.963,217.885,397.723,217.327z"/>
	</g>
	<g>
		<path fill="#0178BF" d="M203.845,188.989c-0.776-1.382-3.399-1.626-7.296-0.91c-7.131,1.313-27.466,12.31-29.59,13.675
			c-2.123,1.365-24.266,13.556-28.815,18.926c-2.099,2.477-2.962,4.472-2.271,5.707c0.638,1.138,2.529,1.505,5.354,1.198
			c6.879-0.746,19.296-5.491,32.605-12.813c12.937-7.118,23.34-14.813,27.839-20.19
			C203.698,192.158,204.526,190.206,203.845,188.989z M171.907,210.936c-17.424,9.491-32.467,15.53-33.604,13.486
			c-1.136-2.045,11.852-12.138,29.275-21.629c17.424-9.493,32.685-14.791,33.82-12.745
			C202.534,192.092,189.33,201.444,171.907,210.936z"/>
		<path d="M201.575,220.681c-2.508-2.96-10.363-7.994-17.264-12.145c-0.367,0.237-0.738,0.473-1.111,0.708
			c11.526,7.205,19.093,13.596,18.214,15.177c-1.136,2.044-16.181-3.995-33.604-13.486c-17.423-9.492-30.627-18.844-29.492-20.888
			c1.136-2.046,16.397,3.252,33.821,12.745c2.458,1.339,4.823,2.689,7.077,4.027c0.373-0.216,0.744-0.433,1.111-0.649
			c-3.843-2.254-6.851-3.955-7.568-4.416c-2.123-1.365-22.459-12.362-29.591-13.675c-3.896-0.717-6.52-0.472-7.295,0.91
			c-0.682,1.217,0.146,3.168,2.174,5.593c4.499,5.376,14.903,13.072,27.838,20.19c13.31,7.322,25.726,12.067,32.606,12.813
			c2.824,0.307,4.715-0.06,5.354-1.198C204.537,225.153,203.673,223.158,201.575,220.681z"/>
	</g>
	<g>
		<g>
			<path fill="#292F74" d="M228.063,211.883c-0.278-0.775-0.565-1.542-0.864-2.298c-0.298-0.756-0.586-1.532-0.863-2.327h-8.695
				c-0.278,0.795-0.561,1.575-0.849,2.341c-0.288,0.766-0.571,1.528-0.849,2.284h-3.892c0.771-2.1,1.504-4.039,2.196-5.817
				c0.692-1.778,1.37-3.462,2.033-5.051c0.663-1.589,1.321-3.103,1.974-4.541c0.653-1.438,1.326-2.856,2.019-4.256h3.573
				c0.693,1.4,1.366,2.819,2.02,4.256c0.654,1.438,1.312,2.951,1.976,4.541c0.664,1.589,1.347,3.273,2.05,5.051
				c0.703,1.778,1.441,3.717,2.213,5.817H228.063z M221.989,196.021c-0.456,1.003-0.976,2.223-1.56,3.661
				c-0.584,1.438-1.193,2.999-1.827,4.682h6.772c-0.634-1.684-1.248-3.254-1.842-4.71S222.424,196.985,221.989,196.021z"/>
			<path fill="#292F74" d="M239.915,212.167c-1.069-0.019-1.956-0.132-2.659-0.34c-0.703-0.208-1.262-0.506-1.678-0.894
				c-0.416-0.388-0.708-0.87-0.876-1.447c-0.168-0.577-0.252-1.234-0.252-1.972v-17.083l3.594-0.568v16.998
				c0,0.417,0.035,0.766,0.104,1.05s0.193,0.525,0.372,0.724c0.178,0.199,0.42,0.351,0.728,0.454
				c0.307,0.104,0.698,0.185,1.174,0.241L239.915,212.167z"/>
			<path fill="#292F74" d="M248.736,212.167c-1.069-0.019-1.956-0.132-2.659-0.34c-0.703-0.208-1.262-0.506-1.678-0.894
				c-0.416-0.388-0.708-0.87-0.876-1.447c-0.168-0.577-0.252-1.234-0.252-1.972v-17.083l3.594-0.568v16.998
				c0,0.417,0.035,0.766,0.104,1.05s0.193,0.525,0.372,0.724c0.178,0.199,0.42,0.351,0.728,0.454
				c0.307,0.104,0.698,0.185,1.174,0.241L248.736,212.167z"/>
			<path fill="#292F74" d="M265.073,192.02c2.99,0,5.282,0.521,6.876,1.561c1.594,1.041,2.391,2.667,2.391,4.881
				c0,1.154-0.212,2.143-0.638,2.965c-0.425,0.823-1.045,1.495-1.857,2.015c-0.812,0.521-1.802,0.904-2.969,1.149
				c-1.169,0.246-2.506,0.369-4.01,0.369h-1.872v6.923h-3.743v-19.381c0.871-0.189,1.836-0.317,2.896-0.383
				C263.206,192.053,264.182,192.02,265.073,192.02z M265.34,195.112c-0.95,0-1.733,0.028-2.347,0.085v6.697h1.812
				c1.802,0,3.188-0.241,4.159-0.724c0.969-0.482,1.456-1.395,1.456-2.738c0-0.643-0.13-1.182-0.387-1.617
				c-0.257-0.435-0.614-0.776-1.069-1.022c-0.456-0.246-0.996-0.42-1.619-0.525C266.722,195.165,266.053,195.112,265.34,195.112z"/>
			<path fill="#292F74" d="M286.43,200.135c-0.297-0.094-0.708-0.194-1.233-0.298c-0.525-0.104-1.133-0.156-1.827-0.156
				c-0.396,0-0.817,0.038-1.263,0.114c-0.445,0.076-0.757,0.142-0.935,0.198v11.89h-3.594v-14.131
				c0.692-0.246,1.559-0.478,2.599-0.695c1.04-0.217,2.193-0.326,3.46-0.326c0.238,0,0.515,0.014,0.832,0.042
				s0.634,0.067,0.95,0.114c0.317,0.047,0.625,0.104,0.921,0.17c0.297,0.067,0.535,0.128,0.713,0.185L286.43,200.135z"/>
			<path fill="#292F74" d="M303.599,204.448c0,1.173-0.179,2.242-0.534,3.207c-0.357,0.965-0.863,1.788-1.516,2.469
				c-0.653,0.681-1.441,1.21-2.361,1.589c-0.921,0.378-1.936,0.567-3.045,0.567s-2.119-0.189-3.03-0.567
				c-0.911-0.378-1.693-0.908-2.347-1.589c-0.654-0.682-1.164-1.504-1.529-2.469c-0.367-0.965-0.55-2.033-0.55-3.207
				c0-1.173,0.183-2.237,0.55-3.192c0.366-0.955,0.88-1.773,1.544-2.455c0.663-0.681,1.45-1.206,2.362-1.575
				c0.91-0.369,1.911-0.554,3-0.554s2.094,0.185,3.016,0.554c0.92,0.369,1.707,0.894,2.361,1.575c0.652,0.681,1.163,1.5,1.529,2.455
				C303.415,202.211,303.599,203.275,303.599,204.448z M299.915,204.448c0-1.476-0.332-2.644-0.995-3.504
				c-0.664-0.861-1.589-1.291-2.777-1.291s-2.114,0.43-2.777,1.291c-0.663,0.861-0.995,2.029-0.995,3.504
				c0,1.495,0.332,2.677,0.995,3.547c0.664,0.87,1.589,1.305,2.777,1.305s2.114-0.435,2.777-1.305
				C299.583,207.125,299.915,205.943,299.915,204.448z"/>
			<path fill="#292F74" d="M307.133,193.126l3.594-0.568v4.483h5.525v2.866h-5.525v6.044c0,1.192,0.197,2.043,0.594,2.554
				c0.396,0.511,1.07,0.767,2.021,0.767c0.653,0,1.233-0.066,1.737-0.199c0.505-0.132,0.906-0.255,1.203-0.369l0.594,2.724
				c-0.416,0.17-0.961,0.345-1.633,0.525c-0.674,0.18-1.467,0.27-2.377,0.27c-1.109,0-2.034-0.142-2.777-0.426
				c-0.742-0.284-1.332-0.695-1.768-1.234s-0.742-1.191-0.92-1.958c-0.179-0.766-0.268-1.641-0.268-2.625V193.126z"/>
			<path fill="#292F74" d="M318.6,204.533c0-1.305,0.202-2.45,0.607-3.433c0.406-0.983,0.945-1.802,1.62-2.455
				c0.673-0.652,1.444-1.144,2.316-1.475c0.871-0.331,1.763-0.497,2.674-0.497c2.138,0,3.806,0.634,5.005,1.902
				c1.197,1.268,1.797,3.159,1.797,5.675c0,0.189-0.005,0.402-0.016,0.639c-0.01,0.237-0.023,0.45-0.044,0.639h-10.247
				c0.099,1.191,0.539,2.114,1.321,2.767c0.782,0.652,1.916,0.979,3.401,0.979c0.871,0,1.668-0.076,2.391-0.227
				s1.292-0.312,1.709-0.482l0.475,2.81c-0.198,0.095-0.471,0.194-0.816,0.297c-0.348,0.104-0.742,0.199-1.188,0.284
				c-0.446,0.085-0.927,0.156-1.44,0.212c-0.516,0.057-1.039,0.085-1.575,0.085c-1.366,0-2.554-0.194-3.563-0.582
				c-1.01-0.387-1.842-0.926-2.496-1.617c-0.653-0.69-1.139-1.504-1.455-2.44C318.758,206.676,318.6,205.65,318.6,204.533z
				 M329.025,203.001c0-0.473-0.07-0.922-0.209-1.348s-0.341-0.794-0.607-1.106c-0.269-0.313-0.596-0.558-0.98-0.738
				c-0.387-0.179-0.848-0.269-1.382-0.269c-0.554,0-1.04,0.099-1.456,0.297c-0.415,0.199-0.768,0.459-1.055,0.78
				c-0.287,0.322-0.51,0.691-0.668,1.107c-0.158,0.417-0.267,0.842-0.326,1.277H329.025z"/>
			<path fill="#292F74" d="M335.561,204.477c0-1.097,0.178-2.123,0.533-3.079c0.357-0.955,0.867-1.783,1.531-2.483
				c0.662-0.7,1.47-1.249,2.42-1.646c0.95-0.397,2.02-0.596,3.208-0.596c1.465,0,2.852,0.256,4.158,0.767l-0.772,2.809
				c-0.416-0.17-0.886-0.312-1.41-0.425c-0.525-0.114-1.085-0.17-1.679-0.17c-1.406,0-2.476,0.421-3.208,1.263
				c-0.732,0.842-1.099,2.029-1.099,3.561c0,1.476,0.346,2.644,1.04,3.505c0.691,0.861,1.86,1.291,3.504,1.291
				c0.614,0,1.219-0.057,1.813-0.17c0.594-0.113,1.109-0.255,1.545-0.425l0.505,2.837c-0.396,0.189-0.995,0.36-1.798,0.511
				c-0.801,0.151-1.629,0.227-2.479,0.227c-1.327,0-2.481-0.194-3.461-0.582c-0.979-0.387-1.792-0.926-2.437-1.617
				c-0.643-0.69-1.123-1.513-1.439-2.469C335.718,206.629,335.561,205.593,335.561,204.477z"/>
			<path fill="#292F74" d="M350.263,193.126l3.595-0.568v4.483h5.524v2.866h-5.524v6.044c0,1.192,0.197,2.043,0.594,2.554
				c0.396,0.511,1.068,0.767,2.02,0.767c0.654,0,1.232-0.066,1.738-0.199c0.504-0.132,0.905-0.255,1.202-0.369l0.595,2.724
				c-0.416,0.17-0.961,0.345-1.634,0.525c-0.674,0.18-1.466,0.27-2.377,0.27c-1.108,0-2.034-0.142-2.776-0.426
				c-0.743-0.284-1.332-0.695-1.768-1.234s-0.742-1.191-0.922-1.958c-0.178-0.766-0.267-1.641-0.267-2.625V193.126z"/>
			<path fill="#292F74" d="M366.867,192.7c0,0.644-0.219,1.154-0.654,1.533s-0.95,0.567-1.545,0.567
				c-0.613,0-1.139-0.189-1.574-0.567s-0.652-0.889-0.652-1.533c0-0.662,0.217-1.182,0.652-1.561
				c0.436-0.378,0.961-0.567,1.574-0.567c0.595,0,1.109,0.189,1.545,0.567C366.648,191.519,366.867,192.039,366.867,192.7z
				 M366.48,211.883h-3.594v-14.841h3.594V211.883z"/>
			<path fill="#292F74" d="M385.104,204.448c0,1.173-0.179,2.242-0.534,3.207c-0.357,0.965-0.862,1.788-1.516,2.469
				c-0.652,0.681-1.44,1.21-2.361,1.589c-0.921,0.378-1.936,0.567-3.045,0.567c-1.108,0-2.119-0.189-3.029-0.567
				c-0.911-0.378-1.693-0.908-2.347-1.589c-0.653-0.682-1.163-1.504-1.529-2.469c-0.367-0.965-0.55-2.033-0.55-3.207
				c0-1.173,0.183-2.237,0.55-3.192c0.366-0.955,0.88-1.773,1.544-2.455c0.663-0.681,1.451-1.206,2.361-1.575
				c0.911-0.369,1.911-0.554,3-0.554c1.09,0,2.095,0.185,3.016,0.554s1.707,0.894,2.361,1.575c0.653,0.681,1.163,1.5,1.529,2.455
				C384.922,202.211,385.104,203.275,385.104,204.448z M381.422,204.448c0-1.476-0.332-2.644-0.996-3.504s-1.589-1.291-2.777-1.291
				c-1.188,0-2.113,0.43-2.777,1.291c-0.663,0.861-0.994,2.029-0.994,3.504c0,1.495,0.331,2.677,0.994,3.547
				c0.664,0.87,1.59,1.305,2.777,1.305c1.188,0,2.113-0.435,2.777-1.305S381.422,205.943,381.422,204.448z"/>
			<path fill="#292F74" d="M388.817,197.524c0.692-0.189,1.593-0.369,2.702-0.539c1.109-0.17,2.338-0.255,3.684-0.255
				c1.268,0,2.327,0.166,3.178,0.497c0.853,0.331,1.53,0.794,2.035,1.39c0.506,0.596,0.861,1.315,1.07,2.157
				c0.207,0.842,0.311,1.765,0.311,2.767v8.342h-3.594v-7.803c0-0.795-0.055-1.471-0.162-2.029
				c-0.109-0.558-0.289-1.012-0.535-1.362c-0.248-0.35-0.584-0.605-1.01-0.766c-0.427-0.161-0.946-0.241-1.561-0.241
				c-0.455,0-0.931,0.028-1.426,0.085c-0.494,0.057-0.861,0.104-1.098,0.142v11.975h-3.595V197.524z"/>
		</g>
	</g>
</g>
</svg>
