<?xml version="1.0" encoding="utf-8"?>
<!-- Generator: Adobe Illustrator 16.0.3, SVG Export Plug-In . SVG Version: 6.00 Build 0)  -->
<!DOCTYPE svg PUBLIC "-//W3C//DTD SVG 1.1//EN" "http://www.w3.org/Graphics/SVG/1.1/DTD/svg11.dtd">
<svg version="1.1" id="Layer_1" xmlns="http://www.w3.org/2000/svg" xmlns:xlink="http://www.w3.org/1999/xlink" x="0px" y="0px"
	 width="841.89px" height="595.28px" viewBox="0 0 841.89 595.28" enable-background="new 0 0 841.89 595.28" xml:space="preserve">
<g>
	<path fill="#FFFFFF" d="M349.4,306.007c-1.946,0-3.609-0.331-4.99-0.992c-1.381-0.661-2.509-1.565-3.385-2.714
		c-0.875-1.146-1.518-2.489-1.926-4.027c-0.408-1.536-0.613-3.181-0.613-4.931c0-2.646,0.476-5.145,1.43-7.5
		c0.953-2.354,2.266-4.406,3.939-6.157c1.672-1.751,3.657-3.131,5.953-4.144c2.295-1.011,4.805-1.518,7.529-1.518
		c0.7,0,1.351,0.04,1.955,0.117c0.603,0.079,1.215,0.195,1.838,0.35l3.151-13.189l9.046-1.401l-7.704,32.041
		c-0.545,2.218-0.7,4.445-0.467,6.683c0.233,2.238,0.68,4.231,1.342,5.982l-7.762,1.108c-0.233-0.467-0.448-0.914-0.642-1.342
		c-0.195-0.428-0.389-0.914-0.583-1.459c-1.09,0.896-2.305,1.634-3.647,2.217C352.522,305.715,351.034,306.007,349.4,306.007z
		 M359.438,281.437c-0.233-0.039-0.438-0.078-0.613-0.117c-0.175-0.039-0.35-0.067-0.525-0.088
		c-0.175-0.019-0.399-0.029-0.671-0.029c-0.272,0-0.623,0-1.05,0c-1.362,0-2.626,0.321-3.793,0.963
		c-1.167,0.642-2.169,1.508-3.006,2.597c-0.837,1.089-1.488,2.325-1.955,3.706c-0.467,1.382-0.7,2.792-0.7,4.231
		c0,1.868,0.321,3.336,0.963,4.406c0.642,1.07,1.799,1.605,3.473,1.605c0.895,0,1.711-0.175,2.451-0.525C:\Users\graci\OneDrive\dobleve\WebAppDblv\WebAppDblv\wwwroot\assets\img\icons\dblv_logo_home278x78.svg
		c0.738-0.35,1.517-0.934,2.334-1.751c0.077-0.972,0.204-1.993,0.379-3.064c0.175-1.069,0.359-2.052,0.554-2.947L359.438,281.437z"
		/>
	<path fill="#FFFFFF" d="M385.059,306.007c-2.063,0-3.852-0.312-5.369-0.934c-1.517-0.622-2.772-1.497-3.764-2.626
		s-1.742-2.461-2.247-3.998c-0.506-1.537-0.759-3.239-0.759-5.106c0-2.334,0.379-4.669,1.138-7.003s1.877-4.436,3.356-6.303
		c1.478-1.868,3.287-3.394,5.427-4.581c2.14-1.187,4.591-1.78,7.354-1.78c2.023,0,3.803,0.312,5.34,0.934
		c1.537,0.623,2.801,1.499,3.793,2.626c0.992,1.129,1.741,2.461,2.247,3.998c0.505,1.538,0.758,3.239,0.758,5.107
		c0,2.334-0.37,4.669-1.108,7.003c-0.74,2.334-1.83,4.435-3.269,6.303c-1.44,1.868-3.239,3.396-5.398,4.581
		C390.399,305.414,387.898,306.007,385.059,306.007z M389.377,281.028c-1.284,0-2.413,0.37-3.385,1.109
		c-0.973,0.74-1.79,1.673-2.451,2.801c-0.662,1.129-1.158,2.364-1.488,3.706c-0.331,1.342-0.496,2.617-0.496,3.823
		c0,1.984,0.311,3.512,0.934,4.581c0.622,1.071,1.751,1.605,3.385,1.605c1.284,0,2.412-0.369,3.385-1.109
		c0.972-0.738,1.789-1.672,2.451-2.801c0.661-1.128,1.157-2.364,1.488-3.706c0.33-1.342,0.496-2.616,0.496-3.822
		c0-1.984-0.312-3.511-0.934-4.582C392.14,281.563,391.012,281.028,389.377,281.028z"/>
	<path fill="#FFFFFF" d="M425.036,273.85c1.867,0,3.481,0.331,4.844,0.992c1.361,0.662,2.489,1.556,3.385,2.685
		c0.895,1.129,1.556,2.451,1.984,3.968c0.428,1.518,0.642,3.152,0.642,4.902c0,2.685-0.496,5.224-1.488,7.616
		c-0.992,2.393-2.344,4.475-4.056,6.244c-1.713,1.771-3.735,3.172-6.069,4.203c-2.335,1.029-4.865,1.546-7.587,1.546
		c-0.351,0-0.963-0.01-1.838-0.028c-0.875-0.021-1.878-0.108-3.006-0.264c-1.129-0.156-2.325-0.389-3.589-0.7
		c-1.265-0.311-2.461-0.738-3.589-1.284l10.096-42.428l9.047-1.401l-3.619,15.058c0.778-0.351,1.556-0.622,2.335-0.817
		C423.304,273.947,424.141,273.85,425.036,273.85z M417.448,298.829c1.362,0,2.646-0.33,3.852-0.992
		c1.206-0.661,2.248-1.546,3.123-2.655s1.565-2.364,2.072-3.765c0.505-1.4,0.758-2.859,0.758-4.377c0-1.868-0.312-3.327-0.934-4.377
		c-0.622-1.051-1.771-1.576-3.443-1.576c-0.545,0-1.255,0.097-2.13,0.292c-0.875,0.195-1.664,0.604-2.364,1.226l-3.852,15.991
		c0.233,0.039,0.438,0.078,0.613,0.117c0.175,0.039,0.359,0.068,0.555,0.087c0.194,0.02,0.428,0.029,0.7,0.029
		C416.67,298.829,417.02,298.829,417.448,298.829z"/>
	<path fill="#FFFFFF" d="M450.947,305.773c-2.763,0-4.931-0.359-6.507-1.08c-1.576-0.719-2.705-1.701-3.385-2.947
		c-0.682-1.244-1.013-2.674-0.992-4.289c0.019-1.614,0.242-3.335,0.671-5.165l7.412-30.99l9.046-1.401l-8.112,33.616
		c-0.156,0.7-0.243,1.342-0.263,1.926c-0.02,0.583,0.088,1.1,0.321,1.546c0.233,0.448,0.632,0.808,1.196,1.08
		c0.563,0.272,1.352,0.448,2.363,0.525L450.947,305.773z"/>
	<path fill="#FFFFFF" d="M458.358,293.167c0-2.489,0.438-4.902,1.313-7.237c0.875-2.334,2.11-4.406,3.706-6.215
		c1.595-1.809,3.53-3.269,5.807-4.377c2.276-1.109,4.795-1.664,7.558-1.664c1.361,0,2.627,0.195,3.794,0.583
		c1.167,0.39,2.188,0.954,3.063,1.692c0.876,0.74,1.556,1.645,2.043,2.714c0.486,1.071,0.729,2.286,0.729,3.648
		c0,2.179-0.487,4.027-1.459,5.544c-0.973,1.518-2.325,2.753-4.057,3.706c-1.731,0.954-3.784,1.644-6.156,2.072
		c-2.374,0.429-4.961,0.642-7.763,0.642c0.271,1.634,0.865,2.792,1.78,3.473c0.914,0.681,2.363,1.021,4.348,1.021
		c1.245,0,2.51-0.106,3.794-0.321c1.284-0.213,2.489-0.534,3.618-0.963l0.642,6.828c-1.089,0.429-2.48,0.816-4.173,1.168
		c-1.692,0.35-3.53,0.524-5.515,0.524c-2.413,0-4.445-0.341-6.099-1.021c-1.654-0.682-2.997-1.605-4.027-2.773
		c-1.031-1.166-1.78-2.527-2.247-4.084C458.592,296.573,458.358,294.918,458.358,293.167z M475.342,280.562
		c-1.984,0-3.726,0.71-5.224,2.13c-1.498,1.42-2.48,3.297-2.947,5.632c2.412-0.078,4.357-0.282,5.836-0.613
		c1.479-0.33,2.627-0.729,3.443-1.197c0.817-0.467,1.362-0.972,1.635-1.517c0.271-0.544,0.408-1.089,0.408-1.634
		C478.493,281.495,477.442,280.562,475.342,280.562z"/>
	<path fill="#FFFFFF" d="M495.185,305.189c-1.012-3.89-1.926-8.433-2.743-13.627c-0.816-5.194-1.381-10.884-1.692-17.071h8.988
		c0.038,1.518,0.097,3.181,0.175,4.99c0.077,1.809,0.175,3.628,0.292,5.457c0.116,1.83,0.252,3.609,0.408,5.34
		c0.155,1.731,0.33,3.297,0.525,4.698c0.855-1.167,1.818-2.606,2.889-4.318c1.069-1.712,2.11-3.502,3.122-5.37
		c1.012-1.867,1.945-3.744,2.802-5.632c0.855-1.887,1.518-3.608,1.984-5.165h9.221c-1.012,2.763-2.267,5.603-3.764,8.521
		c-1.499,2.918-3.104,5.739-4.815,8.462c-1.712,2.724-3.453,5.272-5.223,7.646c-1.771,2.373-3.415,4.396-4.932,6.068H495.185z"/>
	<path fill="#FFFFFF" d="M521.154,293.167c0-2.489,0.438-4.902,1.313-7.237c0.875-2.334,2.11-4.406,3.706-6.215
		c1.595-1.809,3.53-3.269,5.807-4.377c2.276-1.109,4.795-1.664,7.558-1.664c1.361,0,2.627,0.195,3.794,0.583
		c1.167,0.39,2.188,0.954,3.063,1.692c0.876,0.74,1.556,1.645,2.043,2.714c0.486,1.071,0.729,2.286,0.729,3.648
		c0,2.179-0.487,4.027-1.459,5.544c-0.973,1.518-2.325,2.753-4.057,3.706c-1.731,0.954-3.784,1.644-6.156,2.072
		c-2.374,0.429-4.961,0.642-7.763,0.642c0.271,1.634,0.865,2.792,1.78,3.473c0.914,0.681,2.363,1.021,4.348,1.021
		c1.245,0,2.51-0.106,3.794-0.321c1.284-0.213,2.489-0.534,3.618-0.963l0.642,6.828c-1.089,0.429-2.48,0.816-4.173,1.168
		c-1.692,0.35-3.53,0.524-5.515,0.524c-2.413,0-4.445-0.341-6.099-1.021c-1.654-0.682-2.997-1.605-4.027-2.773
		c-1.031-1.166-1.78-2.527-2.247-4.084C521.388,296.573,521.154,294.918,521.154,293.167z M538.138,280.562
		c-1.984,0-3.726,0.71-5.224,2.13c-1.498,1.42-2.48,3.297-2.947,5.632c2.412-0.078,4.357-0.282,5.836-0.613
		c1.479-0.33,2.627-0.729,3.443-1.197c0.817-0.467,1.362-0.972,1.635-1.517c0.271-0.544,0.408-1.089,0.408-1.634
		C541.289,281.495,540.238,280.562,538.138,280.562z M548.935,268.48l-3.502,3.093l-4.844-4.552l-6.595,4.436l-2.685-3.56
		l10.446-8.462L548.935,268.48z"/>
</g>
<g>
	<g>
		<g>
			<g>
				<g>
					<path fill="#FFFFFF" d="M332.486,315.721c-0.32-0.044-0.206,0.453-0.253,0.543
						C332.768,316.153,332.473,315.592,332.486,315.721z"/>
					<polygon fill="#FFFFFF" points="337.769,314.592 337.675,314.795 338.454,314.298 					"/>
					<path fill="#FFFFFF" d="M342.708,314.602c-0.467-0.848-1.79,0.137-2.67-0.165l-0.146-0.192l-0.397,0.681
						C340.566,314.817,341.955,314.365,342.708,314.602z"/>
					<path fill="#FFFFFF" d="M345.342,316.434c-0.163-0.33,0.57-0.284-0.614-0.104c0.06,0.036,0.077,0.057,0.111,0.083
						C344.946,316.409,345.093,316.409,345.342,316.434z"/>
					<path fill="#FFFFFF" d="M344.839,316.413C344.319,316.438,345.18,316.69,344.839,316.413L344.839,316.413z"/>
					<path fill="#FFFFFF" d="M347.242,316.225l-0.685,0.294c0.143,0.195,0.753,0.239,0.526,0.381
						C347.786,316.738,347.641,316.545,347.242,316.225z"/>
					<path fill="#FFFFFF" d="M347.892,315.606l-0.355,0.125C347.599,315.813,347.692,315.841,347.892,315.606z"/>
					<path fill="#FFFFFF" d="M346.783,315.994l0.753-0.263c-0.099-0.137-0.109-0.412-0.346,0.095
						C347.252,315.575,347.104,315.816,346.783,315.994z"/>
					<path fill="#FFFFFF" d="M346.357,315.865c-0.384-0.185-0.881-0.301-0.193-0.594
						C344.853,315.388,345.046,315.983,346.357,315.865z"/>
					<path fill="#FFFFFF" d="M342.96,313.726l-0.514-0.248l-0.444,0.284C342.224,313.62,342.993,313.99,342.96,313.726z"/>
					<path fill="#FFFFFF" d="M351.51,316.663c0.043-0.18-0.23-0.48-0.281-0.711l-0.506,0.207
						C350.983,316.282,351.476,316.396,351.51,316.663z"/>
					<path fill="#FFFFFF" d="M351.229,315.952l0.757-0.31C351.31,315.606,351.186,315.754,351.229,315.952z"/>
					<polygon fill="#FFFFFF" points="348.014,314.666 346.77,315.316 348.253,314.657 					"/>
					<polygon fill="#FFFFFF" points="354.403,316.686 353.974,317.103 354.738,316.473 					"/>
					<path fill="#FFFFFF" d="M356.321,316.613c-0.318,0.345,0.436,0.584,0.1,0.797c0.521-0.062,0.966-0.358,1.367-0.625
						C357.362,316.934,356.908,316.896,356.321,316.613z"/>
					<path fill="#FFFFFF" d="M358.46,316.396c-0.212,0.082-0.433,0.23-0.673,0.389C358.014,316.705,358.236,316.59,358.46,316.396z"
						/>
					<path fill="#FFFFFF" d="M353.276,315.732c0.059,0.108,0.171,0.394,0.596,0.515l-0.298-0.507
						C353.483,315.737,353.381,315.734,353.276,315.732z"/>
					<path fill="#FFFFFF" d="M353.564,315.724l0.01,0.017c0.323,0.014,0.547,0.023,0.644,0.028
						C354.135,315.763,353.938,315.749,353.564,315.724z"/>
					<path fill="#FFFFFF" d="M353.201,315.729c0.027,0.001,0.048,0.002,0.075,0.003C353.248,315.683,353.23,315.666,353.201,315.729
						z"/>
					<path fill="#FFFFFF" d="M349.999,315.125c0.445-0.283,1.373-0.587,0.475-1.02C350.154,314.452,350.668,314.698,349.999,315.125
						z"/>
					<path fill="#FFFFFF" d="M352.831,315.096l-0.804-0.115c0.016,0.134,0.161,0.329-0.06,0.47L352.831,315.096z"/>
					<polygon fill="#FFFFFF" points="353.225,314.936 352.831,315.096 353.129,315.139 					"/>
					<path fill="#FFFFFF" d="M357.083,315.922c0.347-0.221,0.728-0.239,1.157-0.274c-0.46-0.1-0.936-0.154-1.388-0.152
						C356.788,315.654,356.59,315.939,357.083,315.922z"/>
					<path fill="#FFFFFF" d="M355.373,315.781c0.025-0.01,0.054-0.021,0.078-0.029C355.402,315.709,355.364,315.695,355.373,315.781
						z"/>
					<polygon fill="#FFFFFF" points="362.466,315.65 362.398,315.559 362.383,315.646 					"/>
					<path fill="#FFFFFF" d="M356.774,315.4c-0.346-0.098-0.553,0.026-0.75,0.183c0.259-0.051,0.533-0.084,0.827-0.088
						C356.88,315.423,356.886,315.375,356.774,315.4z"/>
					<path fill="#FFFFFF" d="M359.64,316.159c-0.18-0.106-0.384-0.195-0.599-0.278C359.217,316.041,359.576,316.291,359.64,316.159z
						"/>
					<path fill="#FFFFFF" d="M355.566,315.893c-0.017,0.008-0.033,0.017-0.052,0.022
						C355.628,316.023,355.614,315.971,355.566,315.893z"/>
					<path fill="#FFFFFF" d="M355.566,315.893c0.178-0.073,0.318-0.198,0.458-0.31c-0.21,0.04-0.406,0.094-0.575,0.169
						C355.493,315.788,355.536,315.843,355.566,315.893z"/>
					<path fill="#FFFFFF" d="M363.747,312.396c-0.061,0.47-0.971,0.904-1.755,0.4c-0.772,0.353-0.268,1.898,0.407,2.763
						c0.024-0.205,0.024-0.395,0.819-0.672c-0.278-0.257-1.764-0.601-1.093-1.025c1.053-0.242,0.863,0.166,1.375,0.414
						c-0.435-0.585,1.339-0.852,1.11-1.713l-0.923,0.303C363.668,312.731,364.003,312.518,363.747,312.396z"/>
					<path fill="#FFFFFF" d="M360.884,315.511l-0.327,0.058c0.373,0.082,0.64,0.27,1.131,0.638c0.544-0.229,0.657-0.403,0.695-0.561
						l-1.611-0.065L360.884,315.511z"/>
					<path fill="#FFFFFF" d="M359.088,315.57c0.255-0.512,1.041-0.729,0.56-1.282c-0.96,0.036-0.672,0.428-1.246,0.649
						c1.549-0.127-0.445,0.285,0.674,0.574c-0.305,0.087-0.578,0.114-0.837,0.136c0.279,0.062,0.548,0.139,0.801,0.233
						c-0.014-0.013-0.023-0.021-0.035-0.032l-0.007,0.002l0.001-0.008c-0.067-0.064-0.089-0.103-0.014-0.065
						c0.005-0.007,0.024-0.009,0.032-0.011c0.011-0.071,0.04-0.134,0.07-0.193c0.448,0.105,0.07,0.133-0.07,0.193
						c-0.005,0.024-0.017,0.049-0.019,0.076l0.006,0.006l1.551-0.28C360.229,315.498,359.817,315.512,359.088,315.57z"/>
					<path fill="#FFFFFF" d="M351.301,313.006c0.048,0.045,0.046,0.082,0.05,0.119C351.451,313.063,351.489,313.02,351.301,313.006z
						"/>
					<path fill="#FFFFFF" d="M351.939,313.314c-0.112,0.071-0.207,0.276-0.573,0.224c-0.318-0.154,0.001-0.245-0.015-0.413
						c-0.221,0.135-0.773,0.366-0.081,0.615l0.11-0.07c0.625,0.176,1.427,0.813,1.318,0.884
						C352.516,314.094,352.355,313.766,351.939,313.314z"/>
					<path fill="#FFFFFF" d="M355.559,314.313l1.292-0.251l-0.658-0.442l0.033,0.266C355.491,313.78,355.65,314.107,355.559,314.313
						z"/>
					<polygon fill="#FFFFFF" points="362.614,315.905 362.443,316.445 363.189,315.683 					"/>
					<polygon fill="#FFFFFF" points="364.293,315.84 364.231,316.31 364.674,316.026 					"/>
					<path fill="#FFFFFF" d="M459.049,310.014l0.38-0.133C459.249,309.922,459.134,309.967,459.049,310.014z"/>
					<path fill="#FFFFFF" d="M456.3,309.982l-0.067,0.23C456.36,310.086,456.412,309.992,456.3,309.982z"/>
					<path fill="#FFFFFF" d="M405.533,315.787c0.553,0.438,1.171,1.119,1.104,0.591l-0.169-0.515
						C406.081,315.955,405.785,315.897,405.533,315.787z"/>
					<path fill="#FFFFFF" d="M433.776,312.714c-0.053-0.051-0.107-0.104-0.162-0.156c-0.134,0.177-0.259,0.341-0.373,0.492
						C433.403,312.948,433.585,312.834,433.776,312.714z"/>
					<path fill="#FFFFFF" d="M434.166,310.584l0.729,0.332C434.731,310.8,434.497,310.689,434.166,310.584z"/>
					<path fill="#FFFFFF" d="M474.062,309.469l0.443-0.524C473.812,308.947,474.116,309.211,474.062,309.469z"/>
					<path fill="#FFFFFF" d="M381.491,315.65c0.477,0.201,0.857,0.286,1.19,0.311C382.107,315.666,381.643,315.223,381.491,315.65z"
						/>
					<path fill="#FFFFFF" d="M457.968,315.477c0.232-0.093,0.331-0.198,0.324-0.313
						C458.053,315.252,457.918,315.351,457.968,315.477z"/>
					<path fill="#FFFFFF" d="M384.06,315.959c-0.084-0.051-0.167-0.077-0.252-0.121c-0.349,0.087-0.7,0.156-1.126,0.123
						C383.106,316.182,383.593,316.316,384.06,315.959z"/>
					<path fill="#FFFFFF" d="M528.507,309.895c0.04,0.023,0.087,0.034,0.123,0.062C528.643,309.887,528.588,309.883,528.507,309.895
						z"/>
					<path fill="#FFFFFF" d="M544.369,315.089c-0.156,0.032-0.411,0.033-0.651,0.04C543.834,315.164,544.031,315.16,544.369,315.089
						z"/>
					<path fill="#FFFFFF" d="M371.049,316.064C370.693,316.099,370.993,316.121,371.049,316.064L371.049,316.064z"/>
					<path fill="#FFFFFF" d="M369.317,314.029c0.076-0.059,0.133-0.132,0.142-0.251
						C369.431,313.902,369.381,313.981,369.317,314.029z"/>
					<path fill="#FFFFFF" d="M387.607,312.756c0.011,0,0.019,0.001,0.031,0.001C387.532,312.656,387.551,312.676,387.607,312.756z"
						/>
					<path fill="#FFFFFF" d="M370.514,315.831c0.134,0.063,0.288,0.115,0.456,0.152
						C370.896,315.943,370.757,315.894,370.514,315.831z"/>
					<path fill="#FFFFFF" d="M370.586,316.074c-0.124-0.02-0.22-0.035-0.312-0.05C370.229,316.11,370.269,316.164,370.586,316.074z"
						/>
					<path fill="#FFFFFF" d="M371.546,316.037c-0.204,0.008-0.394-0.017-0.577-0.054c0.07,0.035,0.099,0.064,0.08,0.081
						C371.154,316.059,371.301,316.051,371.546,316.037z"/>
					<path fill="#FFFFFF" d="M499.335,311.272c0.023,0.017,0.051,0.026,0.076,0.049
						C499.771,311.107,499.612,311.142,499.335,311.272z"/>
					<path fill="#FFFFFF" d="M414.802,310.441c-0.017,0.006-0.025,0.019-0.041,0.025c0.017,0.006,0.038,0.013,0.053,0.018
						L414.802,310.441z"/>
					<path fill="#FFFFFF" d="M416.081,310.059c-0.544,0.641-0.854,0.562-1.267,0.426l0.423,1.484L416.081,310.059z"/>
					<path fill="#FFFFFF" d="M465.631,309.866l-0.898-0.463c1.084-0.761,1.869-0.499,1.025-1.149
						c-0.127,1.612-3.491,0.165-3.616,1.775l-0.593-0.339c0.17,0.016,0.197-0.079,0.365-0.063c-1.152-0.771-0.855,1.165-2.34,0.936
						c-0.517-0.123-0.878-0.357-0.525-0.549l-1.152,0.399c-0.335-0.031-0.253-0.312,0.081-0.281l-1.758,0.129l0.013-0.048
						c-0.25,0.254-0.818,0.645-1.096,0.811c-0.446-0.231,0.224-0.171,0.109-0.372l-0.973,0.391c-0.396-0.418,0.41-0.823,1.082-0.763
						c-0.909-1.609-0.808,0.405-2.769-0.534l0.919-0.205c-0.593-0.914-1.31-0.583-2.349-1.152c0.247,0.298,2.08,1.436,1.023,1.837
						c-0.298-0.121-0.689-0.18-1.26,0.146c-0.005-0.573-0.562-0.433-1.257-0.4l0.047-0.759c-0.752,0.219-0.693,0.605-1.136,0.947
						c-0.839-0.074-1.013-0.663-1.21-1.158c-1.344-0.12,0.928,0.942-0.662,1.086c-1.117-0.29-1.902,0.02-3.238,0.474
						c-0.782-0.261,0.137-0.464-0.144-0.681l-0.693,0.605c-0.17-0.015-0.115-0.201-0.087-0.295
						c-0.584,0.234-0.049,0.759-0.967,0.965c-0.247,0.836-1.885-1.222-3.021-0.272c-0.279-0.216,0.136-0.465,0.05-0.759
						c-1.559,0.623-1.336,0.452-2.616,1.291l-1.091-0.498c0.801,0.569-0.223,1.244-1.119,1.798c0.284,0.275,0.527,0.517,0.689,0.631
						l-1.431,0.407c-0.173-0.124-0.028-0.385,0.206-0.702c-0.098,0.063-0.19,0.125-0.263,0.182c-0.512-0.28-0.246-0.718,0.12-1.143
						l0.516,0.469c0.354-0.461,0.685-0.972,0.61-1.416c-0.093,0.087-0.271,0.163-0.469,0.205c0.093-0.125,0.151-0.237,0.108-0.313
						c-0.048-0.08-0.197,0.088-0.432,0.281l-0.325-0.846l-0.079,0.336l-1.872-0.529c-1.34,0.852-2.505,2.104-4.631,2.454
						c0.527-0.62,0.113-1.013,0.142-1.748c0.58,0.777,1.646-0.331,2.749-0.173c-0.575-0.082-0.449-0.433-0.303-0.555l-1.965,0.708
						c0.044-0.602-0.418-0.45-0.932-0.699c0.389,1.188-1.465,0.791-2.264,1.156c-0.05-0.399,0.142-0.807,1.117-0.711
						c-1.076-0.895-1.391,1.396-2.447,0.636c0.238-0.01,0.366,0.052,0.461-0.151c-0.557,0.354-1.917,0.074-1.597-0.273l0.238-0.009
						c-1.582-0.141-4.814-0.009-5.05,1.001c-0.016-0.131,0.207-1.217,0.303-1.421l-2.822,3.396c0.249-0.866-0.706-2.931,0.605-3.42
						c-0.376-0.124-0.842-0.268-1.636,0.038c0.257,0.123,0.641,1.253,0.29,1.332c-0.964-0.965-0.669-0.516-1.857-1.339
						c0.385,0.187-0.042,1.546-0.651,1.502c0.095-0.203-0.051-1.342,0.171-1.483l-1.515,1.335c0.378-0.241,0.067-1.131-0.272-1.509
						c0.157,0.262-1.309-0.024-1.713,0.108l0.642,0.31c-1.71-0.202-1.689,1.876-3.385,1.806c0.205-0.275,0.507-1.696-0.355-1.864
						c-0.396,0.684-1.751,3.287-3.252,3.813l-0.288-0.391l-1.152,0.445c0.717-1.028,2.729-3.192,3.829-4.034
						c-0.64-0.31-0.178-0.461-1.137-0.425c-0.338-0.366,0.522-0.556,0.804-0.577l-2.231-0.236c0.099,0.798-1.707,0.8-1.621,1.464
						l2.423-0.826c0.098,0.796-1.401,2.264-2.982,2.123c-0.402-0.317,0.301-1.42,0.268-1.686c-0.206,0.274-1.5,0.524-1.646,0.329
						l0.671-0.426c-0.88-0.301-1.437,1.057-2.494,0.296c-0.365-0.051-1.09-1.027-1.153-0.556c0.595,0.91,0.711,3.727,0.314,4.41
						c-0.128-0.062-1.917-0.87-2.333-1.32c-0.601-0.714,0.903-1.701,0.391-2.313c-0.022,0.218-0.354,0.486-0.493,0.572
						c-0.383-0.186,0.159-0.675-0.674-0.576c-0.139,0.809-1.694-0.068-0.394,0.684c-0.814,0.231-0.866-0.166-1.823-0.131
						c0.305,0.522-0.859,1.778-1.675,2.01c0.048-0.206-0.135-0.474-0.224-0.596c-1.67-0.073-2.567-0.44-4.125-0.447
						c-0.144-0.196-0.895-0.433-0.575-0.781c-0.224,0.144-0.43,0.417-0.911,0.437c-0.93-0.699,1.071-0.108,0.362-0.948
						c-0.061,0.47-1.242,0.647-1.926,0.941c0.21,0.727,1.581,0.14,2.266-0.154c0.003,1.002-1.19,2.05-2.818,2.513
						c-1.293,0.249-0.561-0.646-0.786-0.504c-2.43-0.176-2.07,1.748-4.088,1.025c-0.801-0.638-0.036-1.27-0.213-1.729
						c1.054-0.241,1.618,0.405,2.333,0.38l-0.88-0.302c0.335-0.212,1.039-0.373,1.422-0.188c-0.671-0.573-4.105-0.11-5.98-0.639
						c-0.333,0.214-0.908,0.435-0.636,0.691l0.593-0.089c0.545,0.514-1.117,0.711-0.366,0.951c-0.796,0.362-1.688,0.931-2.808,0.64
						l-0.21-0.728c0.024,0.212,0.732,0.433,1.047,0.212c-0.467,0.322-1.718-0.985-2.229-0.032l0.786,0.504
						c-0.799,0.365-1.787,1.138-2.78,0.908c0.452,0.719,0.229-0.082,0.935,0.758c-0.612-1.045,2.54,0.045,1.557-1.055
						c0.724,0.976,1.253,0.414,2.2,1.246c-0.029-0.24-0.335-0.459,0.498-0.341c0.038-0.07,0.126-0.159,0.183-0.212
						c0.025,0.008,0.035,0.011,0.057,0.019l-0.046-0.028c0.036-0.036,0.039-0.044-0.017-0.01c-0.199-0.105-0.359-0.231-0.425-0.365
						c0.414-0.551,1.739-0.534,2.188-0.818c0.495,0.113-0.207,0.274,0.063,0.531l0.669-0.427c0.066,0.533,1.314,0.885,0.149,1.197
						l1.049,0.023c0.617,0.3,1.467,0.418,1.99,0.194c0.495,0.115,1.25-0.59,0.818-0.173l1.645-0.33l0.015,0.133
						c1.623,0.067,3.34-0.882,5.195,0.079c0.546-0.134,1.111-0.299,2.025-0.147l0.178,0.461c0.702-0.161,2.106,0.462,2.408-0.019
						c0.757,1.24,3.404,0.271,4.638,0.49l0.046-0.602c0.849,0.034,1.664-0.137,2.717-0.379l-0.064-0.531
						c0.909-0.437,2.336,0.378,3.773,0.323c-0.098,0.204-0.462,0.15-0.72,0.027c1.717,1.202,3.623-0.874,5.18,0.002
						c0.388-0.194,0.669-0.128,0.941,0.006c-0.036,0.001-0.068,0.011-0.096,0.028c0.04,0.006,0.099,0.007,0.159,0.006
						c0.171,0.092,0.348,0.198,0.539,0.283c-0.163-0.129-0.318-0.235-0.453-0.285c0.299-0.011,0.753-0.077,1.198-0.21l0.19,0.571
						c0.036-0.006,0.064-0.011,0.103-0.017c0.437,0.211,0.351-0.271,0.118-0.7c0.224-0.094,0.429-0.207,0.589-0.345
						c0.354,0.923,1.167-0.311,1.651,0.673c0.3-0.479,2.237-0.36,2.474-1.37c0.015,0.132,0.146,0.194-0.094,0.202
						c0.496,0.115,0.992,0.23,1.437-0.054l0.21,0.727l1.083-0.978c0.658,0.443,0.931,0.7,0.277,1.26
						c1.578-0.86,1.28-0.324,2.622-1.177l-0.065,0.47c0.479-0.018,1.246-0.646,1.536-0.259c1.073,0.893,5.309,0.124,8.063,0.953
						c-0.534-1.383,1.28,0.62,1.389-0.452c0.161,0.327,0.545,0.512,0.099,0.796c1.405-0.321,2.111,0.519,3.082-0.385
						c0.161,0.328-0.301,0.479-0.158,0.674c0.113-0.071,0.447-0.284,0.593-0.089c0.144,0.194-0.205,0.274-0.428,0.417
						c1.436-0.056,1.581-1.063,1.686-2.01c0.728,0.448,1.09,0.385,1.616-0.235c0.253,0.31,0.676,0.633-0.217,0.744
						c0.502,0.045,3.065,0.454,3.117-0.305c0.157,0.192,0.701,0.057,0.833-0.031c1.127,0.045,1.226,0.113,2.331,0.042l-0.307-0.124
						c0.438-0.915,0.92-0.204,1.812-0.314l-0.026,0.094c2.045,0.66,0.883-0.316,2.899,0.438l-0.109-0.569
						c0.188-1.224,1.787,0.722,2.957,0.254l-0.423-0.325c0.64-0.419,1.787,1.665,2.429,1.817c0.141,0.106-0.221,0.171-0.416,0.25
						c1.681,0.722,0.218-0.746,1.471-0.919c0.23,0.402-0.298,1.022,0.545,1.098c0.42,0.325,2.444-1.306,3.595-0.534
						c-0.253-0.311-0.505-0.62,0.077-0.853c0.892-0.11,2.41,1.171,3.216,0.194c0.113,0.085,0.155,0.166,0.16,0.243
						c0.682-0.252,2.215-0.419,2.626-0.948c0.63,1.966,4.237-0.956,4.222,0.856l2.097-0.097l-0.055,0.185
						c1.34,0.12,1.813-0.314,2.285-0.749c0.31,0.123,0.083,0.292,0.058,0.388c1.958,0.365,2.153,0.288,3.794-0.615l0.171,0.588
						c0.445-0.342,2.831,0.923,4.752,0.236c-0.02,0.066-0.059,0.181-0.211,0.264c2.16-0.689,5.172,1.632,5.964-0.51l1.426-0.528
						c-1.845-0.166,0.275-0.929-0.484-1.285c0.726-0.126,1.876,0.646,0.984,0.756l-0.14-0.106c-0.327,1.116,2.293,0.396,2.243,1.155
						c3.63-0.055,7.168,0.563,10.567,0.61l-0.392-0.867l1.187,0.05c0.312,0.202,0.418,0.679-0.429,0.643
						c0.445,0.492,1.419-0.411,1.443-0.601c1.656,0.352-0.647,1.013-0.139,1.033l0.689-0.065l-0.155-0.101
						c0.56-0.354,0.608-0.73,1.626-0.688c0.644,0.174,0.33,0.536,0.583,0.569c-0.002,0.062,0.084,0.091,0.389,0.025l1.494,0.073
						l-0.598-0.685c0.662-0.338,1.405,0.035,0.716-0.741c1.012,1.197,5.574,0.431,6.195,0.802c0.928-0.499,1.843-0.491,2.978-0.431
						c-0.282-0.143-0.451-0.913,0.527-0.818c-0.357,1.59,1.792,0.689,2.582,1.834c-0.706-0.759,2.781-0.188,1.673-1.265
						c0.816,0.129,0.05,0.595,0.669,0.97c1.942-0.616,4.281,0.399,6.683,0.192c0.038-0.209-0.364-0.528,0.15-0.839l1.269,1.044
						c0.475-0.103,0.437-1.205,1.303-0.48c-0.122-0.176-0.305-0.44,0.014-0.507c4.704,1.017,9.613-0.833,14.392,1.077
						c-0.647-0.404-0.216-0.444,0.278-0.459c-0.321-0.097,0.007-0.516-0.057-0.799l2.001,0.786c0.364-0.785,2.145-0.054,2.354-0.804
						l-0.634,0.135c0.843-0.886-1.179-1.969-1.056-3.105c-0.943,1.007-2.487-1.491-4.034-0.05c-0.342-0.231,0.291-0.366,0.108-0.63
						c-0.393,0.487-0.866,0.589-1.744,0.37l0.1-0.12c-2.467,0.119-3.524-0.361-6.295-0.682l0.205,0.563
						c-0.595-0.075-0.721-0.252-0.999-0.393c-0.684,0.853,1.672,0.048,1.05,0.988c-0.79-1.144-4.199-0.018-4.732-1.317
						c-0.916-0.007,0.268,0.65-0.647,0.644l-0.243-0.352l-0.231,0.453c-0.601-0.075-0.903-0.515-0.926-0.813
						c0.146,0.035,0.414-0.084,0.57-0.109c-0.778-0.414-2.195,0.142-2.463,0.007l0.88,0.217c-2.5,0.329-5.552-0.133-7.967,0.582
						l0.184,0.266c-1.845,0.49-1.478-0.292-3.502-0.064l0.073-0.063c-0.405,0.265-0.946,0.397-1.5,0.367
						c0.511-0.311-0.962-0.604-0.292-0.947c-2,0.526-0.989,0.414-2.31,1.399l-0.305-0.439c-0.45,0.397-0.488,0.607-1.499,0.722
						c0.829-0.378-0.646-0.671,0.283-1.17c-2.122-0.962-3.15,0.972-4.124-0.436c-0.975,1.218,1.836,0.676,1.29,0.937
						c0.457,0.398-0.804,0.91-1.47,0.788c-0.678-0.027-1.152-1.558-2.858-1.535c0.17,0.006,0.182-0.086,0.351-0.081
						c-0.638-0.311-1.25,0.421-2.033-0.084c-0.438,0.736-1.017-0.042-1.143,0.897l1.564-0.218c-0.887,0.246-1.719,1.345-3.18,0.812
						c0.114-0.189,0.549-0.438,0.848-0.577c-0.428-0.277-0.822,0.184-1.266-0.101c0.126-0.94,1.901-0.205,2.852-0.922
						c-0.459-0.396-1.798,0.682-1.32-0.337c-0.687,1.295-1.68-0.163-2.835,0.825l0.076-0.563c-0.183,0.089-0.562,0.354-0.897,0.341
						l0.608-0.73c-0.935,0.623-1.802-0.545-2.699-0.205c1.878-0.018,0.422,0.678,1.216,1.089c-2.315,0.754-1.332-1.473-3.925-1.203
						c0.352-0.079,1.318,0.339,0.77,0.6c-0.494-0.116-1.146-0.332-1.448-0.628c-1.718,0.117,0.264,0.579-0.468,0.926
						c-0.585-0.687-0.844,0.279-1.597,0.498l-0.005-0.572c-1.958-0.367-0.52,1.193-2.281,0.749l0.744-0.793l-0.919,0.205l0.19-0.651
						c-1,0.482-1.312,0.357-2.291,0.176c0.229,0.402-0.128,1.038-0.994,1.057c-0.592-0.341,0.331-0.544-0.898-0.463
						c0.277-0.357,0.582-0.808,1.116-0.28c0.055-0.187,0.273-0.359,0.33-0.543c-0.637-0.392-1.601-0.09-2.045-0.084
						c0.171,0.021,0.376,0.052,0.48,0.134l-1.781,0.793c-0.28-0.215-0.058-0.388,0.162-0.557c-0.36,0.062-0.61,0.324-1.141,0.374
						c0.138-0.466,0.104-0.945,0.855-1.165l-1.697,0.517c-0.113-0.202-0.871-0.556-0.651-0.728c-0.94-0.273-2.309,0.903-3.556,0.542
						c-0.065,0.091-0.195,0.177-0.46,0.243c-1.173-0.105-2.212-0.676-3.602-0.038l-0.789-0.834
						c-1.088,0.189,1.068,1.051-0.744,1.365c-1.283,0.267-0.479-0.711-0.93-0.943c-0.638,0.421-1.747,1.276-2.926,0.597
						C464.96,309.805,465.267,309.928,465.631,309.866z M452.207,310.235c0.26-0.12,0.778-0.49,0.969-0.153
						C452.879,310.738,452.65,310.424,452.207,310.235z M431.8,311.613c0.193-0.189,0.492-0.096,0.83,0.121
						C432.385,311.781,432.107,311.76,431.8,311.613z M374.953,315.599c0.011-0.009,0.019-0.016,0.028-0.027
						C375.561,315.794,375.355,315.706,374.953,315.599z M373.748,315.351c-0.121,0.08-0.113,0.159-0.062,0.239
						c0.084-0.145,0.354-0.155,0.663-0.114C374.264,315.325,374.108,315.223,373.748,315.351z M503.139,315.125l-0.234-0.149
						C503.434,314.811,503.285,314.959,503.139,315.125z"/>
					<path fill="#FFFFFF" d="M434.113,310.83c0.074,0.097,0.095,0.204,0.111,0.312C434.327,311.045,434.329,310.934,434.113,310.83z
						"/>
					<path fill="#FFFFFF" d="M473.979,309.565l0.041,0.006c0.022-0.034,0.034-0.068,0.041-0.103L473.979,309.565z"/>
					<path fill="#FFFFFF" d="M392.412,310.497c0.248,0.082,0.386,0.188,0.479,0.296
						C392.904,310.652,392.791,310.534,392.412,310.497z"/>
					<path fill="#FFFFFF" d="M367.363,316.323l0.772-0.149c-0.374,0.029-0.507-0.097-0.695-0.188
						C367.457,316.12,367.604,316.313,367.363,316.323z"/>
					<path fill="#FFFFFF" d="M360.665,312.781c-0.113,0.07-0.239,0.008-0.351,0.078l0.031,0.267
						C360.825,313.108,361.161,312.894,360.665,312.781z"/>
					<path fill="#FFFFFF" d="M366.649,314.421c-0.061-0.481-0.545-0.317-1.086-0.229c0.032-0.002,0.063-0.006,0.096,0
						C365.499,314.866,366.075,314.643,366.649,314.421z"/>
					<path fill="#FFFFFF" d="M365.438,314.209c-0.167,0.022-0.337,0.035-0.5,0.012C364.875,314.49,365.141,314.277,365.438,314.209z
						"/>
					<path fill="#FFFFFF" d="M372.22,315.67c-0.256-0.124-0.161,0.615-0.306,0.419C371.628,316.702,373.624,315.348,372.22,315.67z"
						/>
					<polygon fill="#FFFFFF" points="366.211,312.835 366.405,313.43 366.708,312.95 					"/>
					<path fill="#FFFFFF" d="M370.479,313.271l-0.864-0.165c0.013,0.1-0.097,0.158-0.231,0.203
						C369.917,313.329,370.5,313.447,370.479,313.271z"/>
					<path fill="#FFFFFF" d="M369.384,313.31c-0.277-0.012-0.541,0.001-0.695,0.099C368.839,313.401,369.162,313.382,369.384,313.31
						z"/>
					<polygon fill="#FFFFFF" points="367.392,312.656 367.647,312.78 368.257,312.824 					"/>
					<path fill="#FFFFFF" d="M379.766,313.386l0.942-0.17c0.096-0.204-0.161-0.329-0.512-0.248
						C379.971,313.11,379.621,313.188,379.766,313.386z"/>
					<path fill="#FFFFFF" d="M376.915,311.758c0.255,0.123,0.272,0.256,0.416,0.452l0.029-0.737L376.915,311.758z"/>
					<path fill="#FFFFFF" d="M379.664,311.586c0.094-0.205,1.368-0.587,0.173-0.541
						C379.742,311.248,378.798,311.418,379.664,311.586z"/>
					<polygon fill="#FFFFFF" points="393.87,312.518 393.63,312.527 393.665,313.735 					"/>
					<path fill="#FFFFFF" d="M406.39,309.627c-1.117-0.289-0.265,0.746-1.275,0.384c-0.262,0.286,0.825,0.295,0.557,0.542
						C406.346,310.252,406.7,310.422,406.39,309.627z"/>
					<path fill="#FFFFFF" d="M405.672,310.553c-0.108,0.048-0.223,0.105-0.344,0.184
						C405.523,310.661,405.615,310.604,405.672,310.553z"/>
					<polygon fill="#FFFFFF" points="547,315.738 547.719,315.99 547.256,315.584 					"/>
					<path fill="#FFFFFF" d="M548.38,314.842l0.169,0.77l0.432-0.696C548.818,314.949,548.503,315.016,548.38,314.842z"/>
					<path fill="#FFFFFF" d="M450.211,308.684l-0.055,0.186c0.111,0.2,0.279,0.216,0.616,0.247L450.211,308.684z"/>
					<polygon fill="#FFFFFF" points="459.954,309.261 459.786,309.245 460.1,309.941 					"/>
					<path fill="#FFFFFF" d="M468.132,308.372c-0.334-0.028-0.727,0.126-1.062,0.097
						C467.798,308.344,468.222,309.24,468.132,308.372z"/>
				</g>
			</g>
		</g>
	</g>
</g>
<g>
	<polygon fill="none" stroke="#262262" stroke-width="1.8391" stroke-miterlimit="10" points="307.103,265.999 290.081,280.154 
		296.533,302.018 319.109,302.018 325.561,279.617 	"/>
	<polygon fill="none" stroke="#FFFFFF" stroke-width="1.9063" stroke-miterlimit="10" points="304.236,254.709 320.184,260.803 
		333.982,276.572 325.561,279.617 307.103,265.999 	"/>
	<polygon fill="none" stroke="#FFFFFF" stroke-width="1.9063" stroke-miterlimit="10" points="283.629,261.16 274.492,276.75 
		290.081,280.154 307.103,265.999 304.236,254.709 	"/>
	<polygon fill="none" stroke="#FFFFFF" stroke-width="1.9063" stroke-miterlimit="10" points="286.857,312.051 296.533,302.018 
		290.081,280.154 274.492,276.75 273.417,297.535 	"/>
	<polygon fill="none" stroke="#FFFFFF" stroke-width="1.9063" stroke-miterlimit="10" points="302.803,317.963 323.052,312.051 
		319.109,302.018 296.533,302.018 286.857,312.051 	"/>
	<polygon fill="none" stroke="#FFFFFF" stroke-width="1.9063" stroke-miterlimit="10" points="333.982,276.572 332.369,296.818 
		323.052,312.051 319.109,302.018 325.561,279.617 	"/>
	<path fill="#FFFFFF" d="M286.061,261.16c0,1.344-1.089,2.432-2.434,2.432c-1.34,0-2.427-1.088-2.427-2.432
		c0-1.34,1.087-2.428,2.427-2.428C284.972,258.732,286.061,259.82,286.061,261.16z"/>
	<path fill="#FFFFFF" d="M306.668,255.205c0,1.341-1.089,2.428-2.431,2.428c-1.343,0-2.43-1.087-2.43-2.428
		c0-1.345,1.087-2.432,2.43-2.432C305.779,252.773,306.668,253.661,306.668,255.205z"/>
	<path fill="#FFFFFF" d="M322.349,261.16c0,1.344-1.087,2.432-2.43,2.432c-1.341,0-2.431-1.088-2.431-2.432
		c0-1.34,1.09-2.428,2.431-2.428C321.262,258.732,322.349,259.82,322.349,261.16z"/>
	<path fill="#FFFFFF" d="M336.413,276.572c0,1.343-1.087,2.431-2.429,2.431c-1.341,0-2.431-1.088-2.431-2.431
		s0.887-2.431,2.431-2.431C335.525,274.141,336.413,275.229,336.413,276.572z"/>
	<path fill="#FFFFFF" d="M309.535,265.999c0,1.344-0.888,2.43-2.432,2.43c-1.545,0-2.431-1.086-2.431-2.43
		c0-1.342,1.087-2.43,2.431-2.43C308.446,263.569,309.535,264.657,309.535,265.999z"/>
	<path fill="#FFFFFF" d="M292.511,280.155c0,1.545-1.088,2.432-2.431,2.432c-1.341,0-2.429-1.088-2.429-2.432
		c0-1.343,1.088-2.43,2.429-2.43C291.423,277.725,292.511,278.611,292.511,280.155z"/>
	<circle fill="#FFFFFF" cx="274.491" cy="276.75" r="2.43"/>
	<path fill="#FFFFFF" d="M275.847,297.744c0,1.34-1.087,2.432-2.43,2.432c-1.344,0-2.431-1.092-2.431-2.432
		c0-1.778,0.65-2.429,2.431-2.429C274.76,295.315,275.847,296.401,275.847,297.744z"/>
	<path fill="#FFFFFF" d="M289.284,312.051c0,1.342-0.886,2.432-2.427,2.432c-1.545,0-2.434-1.09-2.434-2.432
		c0-1.34,1.091-2.43,2.434-2.43C288.198,309.621,289.284,310.711,289.284,312.051z"/>
	<circle fill="#FFFFFF" cx="296.533" cy="302.018" r="2.429"/>
	<circle fill="#FFFFFF" cx="319.109" cy="302.018" r="2.429"/>
	<path fill="#FFFFFF" d="M304.829,317.961c0,1.545-0.89,2.432-2.43,2.432c-1.343,0-2.429-1.088-2.429-2.432
		c0-1.342,1.086-2.428,2.429-2.428C303.74,315.533,304.829,316.619,304.829,317.961z"/>
	<path fill="#FFFFFF" d="M325.48,312.051c0,1.342-1.086,2.432-2.428,2.432c-1.346,0-2.433-1.09-2.433-2.432
		c0-1.34,1.087-2.43,2.433-2.43C324.394,309.621,325.48,310.711,325.48,312.051z"/>
	<circle fill="#FFFFFF" cx="332.369" cy="296.821" r="2.43"/>
	<circle fill="#FFFFFF" cx="324.891" cy="279.617" r="2.429"/>
</g>
<g>
	<g>
		<path fill="#FFFFFF" d="M371.135,329.156c0.633,0.38,1.519,0.681,2.516,0.681c0.87,0,1.677-0.411,1.677-1.234
			c0-0.617-0.459-0.997-1.44-1.52c-1.124-0.601-2.2-1.455-2.2-2.832c0-2.152,1.867-3.465,4.193-3.465c1.282,0,2.041,0.284,2.5,0.521
			l-0.712,1.899c-0.348-0.19-1.092-0.475-1.978-0.459c-1.06,0-1.614,0.522-1.614,1.107c0,0.633,0.649,1.013,1.551,1.52
			c1.298,0.68,2.104,1.55,2.104,2.832c0,2.373-1.962,3.592-4.32,3.592c-1.471-0.016-2.547-0.396-3.038-0.76L371.135,329.156z"/>
		<path fill="#FFFFFF" d="M382.272,331.799c-1.978,0-3.292-1.281-3.292-3.196c0-2.674,1.867-4.89,4.621-4.89
			c2.089,0,3.291,1.424,3.291,3.196c0,2.816-1.946,4.89-4.604,4.89H382.272z M382.573,330.059c1.234,0,1.946-1.82,1.946-3.134
			c0-0.728-0.317-1.471-1.219-1.471c-1.313,0-1.978,1.898-1.978,3.101c0,0.902,0.458,1.504,1.234,1.504H382.573z"/>
		<path fill="#FFFFFF" d="M387.587,331.625l2.152-11.234h2.278l-2.152,11.234H387.587z"/>
		<path fill="#FFFFFF" d="M400.182,323.887l-0.981,5.222c-0.19,0.981-0.316,1.82-0.427,2.517h-2.01l0.143-1.25l-0.032-0.016
			c-0.791,1.013-1.725,1.439-2.658,1.439c-1.25,0-1.994-0.696-1.994-2.168c0-0.411,0.047-0.886,0.158-1.424l0.823-4.32h2.278
			l-0.791,4.146c-0.063,0.348-0.111,0.743-0.111,1.028c0,0.49,0.206,0.886,0.775,0.886c0.775,0,1.583-0.934,1.867-2.468l0.681-3.593
			H400.182z"/>
		<path fill="#FFFFFF" d="M406.319,331.372c-0.427,0.205-1.044,0.363-1.519,0.396l-0.396,0.554c0.554,0.126,0.965,0.538,0.965,1.076
			c0,1.044-1.108,1.439-1.931,1.439c-0.522,0-1.044-0.143-1.297-0.332l0.38-0.854c0.285,0.158,0.617,0.253,0.87,0.253
			c0.285,0,0.57-0.127,0.57-0.443c0-0.284-0.285-0.506-1.14-0.569l0.775-1.14c-1.788-0.189-2.737-1.472-2.737-3.133
			c0-2.753,2.104-4.905,5.063-4.905c0.649,0,1.218,0.127,1.566,0.27l-0.569,1.74c-0.269-0.11-0.585-0.189-1.044-0.189
			c-1.614,0-2.627,1.376-2.627,2.832c0,1.061,0.681,1.598,1.519,1.598c0.665,0,1.14-0.158,1.535-0.316L406.319,331.372z"/>
		<path fill="#FFFFFF" d="M411.033,331.799c-1.978,0-3.292-1.281-3.292-3.196c0-2.674,1.867-4.89,4.621-4.89
			c2.089,0,3.291,1.424,3.291,3.196c0,2.816-1.946,4.89-4.604,4.89H411.033z M411.334,330.059c1.234,0,1.946-1.82,1.946-3.134
			c0-0.728-0.317-1.471-1.219-1.471c-1.313,0-1.978,1.898-1.978,3.101c0,0.902,0.458,1.504,1.234,1.504H411.334z M410.273,322.812
			c0.016-1.234,0.491-1.963,1.298-1.963c0.443,0,0.728,0.158,1.013,0.316c0.253,0.159,0.475,0.301,0.665,0.301
			c0.269,0,0.364-0.142,0.443-0.68h1.06c-0.031,1.345-0.49,1.914-1.313,1.914c-0.427,0-0.792-0.143-1.044-0.316
			c-0.237-0.158-0.443-0.269-0.649-0.269c-0.222,0-0.332,0.301-0.38,0.696H410.273z"/>
		<path fill="#FFFFFF" d="M422.819,331.182c-0.902,0.459-2.025,0.617-2.88,0.617c-2.215,0-3.354-1.25-3.354-3.275
			c0-2.357,1.709-4.811,4.51-4.811c1.566,0,2.69,0.887,2.69,2.326c0,1.962-1.915,2.674-5.017,2.595c0,0.222,0.079,0.57,0.238,0.792
			c0.3,0.396,0.823,0.601,1.487,0.601c0.838,0,1.551-0.189,2.167-0.49L422.819,331.182z M421.648,326.023
			c0-0.38-0.316-0.648-0.838-0.648c-1.06,0-1.662,0.886-1.82,1.598c1.772,0.016,2.658-0.222,2.658-0.934V326.023z"/>
		<path fill="#FFFFFF" d="M424.559,329.6c0.443,0.222,1.281,0.538,2.025,0.538c0.633,0,0.965-0.316,0.965-0.696
			s-0.253-0.649-0.965-0.997c-0.887-0.443-1.63-1.092-1.63-2.057c0-1.614,1.408-2.675,3.401-2.675c0.902,0,1.615,0.19,1.979,0.396
			l-0.538,1.614c-0.316-0.143-0.87-0.332-1.551-0.332c-0.601,0-0.997,0.253-0.997,0.68c0,0.317,0.316,0.586,0.934,0.871
			c0.855,0.427,1.74,1.06,1.74,2.136c0,1.772-1.502,2.737-3.56,2.722c-0.966-0.016-1.899-0.269-2.358-0.602L424.559,329.6z"/>
		<path fill="#FFFFFF" d="M440.237,331.182c-0.902,0.459-2.025,0.617-2.88,0.617c-2.215,0-3.355-1.25-3.355-3.275
			c0-2.357,1.709-4.811,4.511-4.811c1.566,0,2.689,0.887,2.689,2.326c0,1.962-1.914,2.674-5.017,2.595
			c0,0.222,0.08,0.57,0.238,0.792c0.301,0.396,0.822,0.601,1.487,0.601c0.839,0,1.551-0.189,2.168-0.49L440.237,331.182z
			 M439.066,326.023c0-0.38-0.316-0.648-0.839-0.648c-1.06,0-1.661,0.886-1.819,1.598c1.771,0.016,2.658-0.222,2.658-0.934V326.023z
			"/>
		<path fill="#FFFFFF" d="M441.691,331.625l0.965-5.222c0.189-0.981,0.301-1.82,0.396-2.517h1.962l-0.143,1.267h0.032
			c0.712-0.997,1.646-1.44,2.643-1.44c1.234,0,1.772,0.791,1.835,1.472c0.696-0.997,1.662-1.472,2.675-1.472
			c1.187,0,1.883,0.775,1.883,2.089c0,0.316-0.063,0.934-0.127,1.329l-0.839,4.494h-2.215l0.775-4.225
			c0.063-0.301,0.11-0.634,0.11-0.934c0-0.538-0.237-0.918-0.759-0.918c-0.76,0-1.52,1.013-1.82,2.579l-0.648,3.497h-2.199
			l0.807-4.257c0.048-0.301,0.095-0.602,0.095-0.87c0-0.538-0.174-0.949-0.728-0.949c-0.775,0-1.582,1.076-1.852,2.595l-0.648,3.481
			H441.691z"/>
		<path fill="#FFFFFF" d="M461.246,322.953h-2.816l0.396-1.993h7.927l-0.379,1.993h-2.849l-1.646,8.672h-2.278L461.246,322.953z"/>
		<path fill="#FFFFFF" d="M470.264,320.96l-2.025,10.665h-2.279l2.025-10.665H470.264z"/>
		<path fill="#FFFFFF" d="M479.913,331.625c-0.221-0.237-0.38-0.475-0.569-0.729c-0.681,0.507-1.582,0.902-2.88,0.902
			c-1.978,0-3.291-1.092-3.291-2.816c0-1.63,1.202-2.658,2.579-3.308l0.016-0.031c-0.332-0.554-0.585-1.155-0.585-1.804
			c-0.017-1.725,1.376-3.054,3.339-3.054c1.598,0,2.705,0.949,2.705,2.357c0,1.25-0.934,2.152-2.643,2.959v0.047
			c0.428,0.665,0.997,1.456,1.425,2.042c0.68-0.775,1.139-1.757,1.455-2.722h2.104c-0.569,1.646-1.313,3.022-2.516,4.161
			c0.411,0.602,0.949,1.298,1.551,1.994H479.913z M477.129,330.09c0.554,0,0.965-0.222,1.297-0.506
			c-0.538-0.696-1.281-1.709-1.883-2.675c-0.475,0.349-1.044,0.887-1.044,1.678c0,0.822,0.554,1.503,1.613,1.503H477.129z
			 M478.331,322.258c-0.617,0-1.092,0.585-1.092,1.345c0,0.49,0.174,0.934,0.475,1.313c0.823-0.364,1.503-0.95,1.503-1.741
			c0-0.49-0.269-0.917-0.87-0.917H478.331z"/>
		<path fill="#FFFFFF" d="M486.699,331.625l2.025-10.665h2.674l1.408,4.066c0.428,1.361,0.712,2.469,0.966,3.64h0.047
			c0.048-1.092,0.206-2.263,0.491-3.829l0.728-3.877h2.136l-2.025,10.665h-2.357l-1.487-4.257c-0.475-1.456-0.76-2.421-1.044-3.719
			h-0.048c-0.11,1.045-0.364,2.548-0.681,4.241l-0.712,3.734H486.699z"/>
		<path fill="#FFFFFF" d="M503.597,331.182c-0.902,0.459-2.025,0.617-2.88,0.617c-2.216,0-3.354-1.25-3.354-3.275
			c0-2.357,1.709-4.811,4.51-4.811c1.566,0,2.689,0.887,2.689,2.326c0,1.962-1.914,2.674-5.016,2.595
			c0,0.222,0.079,0.57,0.237,0.792c0.301,0.396,0.822,0.601,1.487,0.601c0.839,0,1.551-0.189,2.168-0.49L503.597,331.182z
			 M502.426,326.023c0-0.38-0.316-0.648-0.839-0.648c-1.061,0-1.661,0.886-1.819,1.598c1.771,0.016,2.658-0.222,2.658-0.934V326.023
			z"/>
		<path fill="#FFFFFF" d="M505.557,332.701c0.428,0.253,1.361,0.427,2.025,0.427c1.14,0,1.979-0.506,2.311-2.057l0.126-0.665h-0.031
			c-0.602,0.791-1.298,1.155-2.215,1.155c-1.535,0-2.469-1.25-2.484-2.77c-0.017-2.547,1.819-5.079,5.189-5.079
			c1.092,0,2.042,0.206,2.864,0.538l-1.171,6.377c-0.269,1.424-0.712,2.689-1.63,3.434c-0.839,0.665-1.962,0.87-2.99,0.87
			c-1.045,0-1.994-0.189-2.532-0.49L505.557,332.701z M510.873,325.596c-0.174-0.079-0.506-0.142-0.822-0.142
			c-1.377,0-2.357,1.534-2.357,2.99c0,0.791,0.348,1.36,1.044,1.36c0.744,0,1.487-0.838,1.74-2.136L510.873,325.596z"/>
		<path fill="#FFFFFF" d="M517.406,331.799c-1.978,0-3.291-1.281-3.291-3.196c0-2.674,1.867-4.89,4.62-4.89
			c2.089,0,3.291,1.424,3.291,3.196c0,2.816-1.946,4.89-4.604,4.89H517.406z M517.707,330.059c1.234,0,1.946-1.82,1.946-3.134
			c0-0.728-0.316-1.471-1.219-1.471c-1.313,0-1.978,1.898-1.978,3.101c0,0.902,0.459,1.504,1.234,1.504H517.707z M521.646,320.549
			l-2.057,2.404h-1.646l1.487-2.404H521.646z"/>
		<path fill="#FFFFFF" d="M528.401,331.388c-0.491,0.237-1.282,0.411-2.2,0.411c-1.914,0-3.26-1.171-3.26-3.181
			c0-2.753,2.105-4.905,5.048-4.905c0.665,0,1.234,0.127,1.583,0.27l-0.57,1.74c-0.269-0.11-0.585-0.189-1.044-0.189
			c-1.614,0-2.627,1.376-2.627,2.832c0,1.076,0.681,1.614,1.52,1.614c0.664,0,1.139-0.158,1.534-0.316L528.401,331.388z"/>
		<path fill="#FFFFFF" d="M529.57,331.625l1.472-7.738h2.263l-1.456,7.738H529.57z M532.45,322.874
			c-0.665,0-1.155-0.475-1.155-1.187c0-0.822,0.648-1.376,1.393-1.376c0.712,0,1.218,0.458,1.218,1.187
			c0,0.87-0.664,1.376-1.439,1.376H532.45z"/>
		<path fill="#FFFFFF" d="M537.291,331.799c-1.978,0-3.291-1.281-3.291-3.196c0-2.674,1.867-4.89,4.62-4.89
			c2.089,0,3.291,1.424,3.291,3.196c0,2.816-1.946,4.89-4.604,4.89H537.291z M537.592,330.059c1.234,0,1.946-1.82,1.946-3.134
			c0-0.728-0.316-1.471-1.219-1.471c-1.313,0-1.978,1.898-1.978,3.101c0,0.902,0.459,1.504,1.234,1.504H537.592z"/>
		<path fill="#FFFFFF" d="M542.89,329.6c0.443,0.222,1.282,0.538,2.025,0.538c0.633,0,0.966-0.316,0.966-0.696
			s-0.254-0.649-0.966-0.997c-0.886-0.443-1.63-1.092-1.63-2.057c0-1.614,1.408-2.675,3.402-2.675c0.902,0,1.614,0.19,1.978,0.396
			l-0.537,1.614c-0.317-0.143-0.871-0.332-1.551-0.332c-0.602,0-0.997,0.253-0.997,0.68c0,0.317,0.316,0.586,0.934,0.871
			c0.854,0.427,1.74,1.06,1.74,2.136c0,1.772-1.503,2.737-3.561,2.722c-0.965-0.016-1.898-0.269-2.357-0.602L542.89,329.6z"/>
	</g>
</g>
</svg>
