<?xml version="1.0" encoding="utf-8"?>
<!-- Generator: Adobe Illustrator 16.0.3, SVG Export Plug-In . SVG Version: 6.00 Build 0)  -->
<!DOCTYPE svg PUBLIC "-//W3C//DTD SVG 1.1//EN" "http://www.w3.org/Graphics/SVG/1.1/DTD/svg11.dtd">
<svg version="1.1" id="Layer_1" xmlns="http://www.w3.org/2000/svg" xmlns:xlink="http://www.w3.org/1999/xlink" x="0px" y="0px"
	 width="1073px" height="920px" viewBox="0 0 1073 920" enable-background="new 0 0 1073 920" xml:space="preserve">
<g id="_x23_003772ff">
	<path fill="#003772" d="M530.58,37.59c3.04-0.859,6.28-1.52,9.391-0.579C613.44,56.24,684.87,82.59,754.711,112.29
		c6.699,2.99,13.63,5.471,20.1,8.96c-5.35,37.99-11.11,75.931-15.94,113.98c6.301-2.95,12.13-6.771,18.23-10.11
		c31.63-17.95,63.979-34.649,96.95-50.02c2.88-1.2,6.189-3.641,9.29-1.58c55.13,27.56,108.739,58.05,161.81,89.359
		c5.67,3.431,11.46,6.65,16.99,10.311c-17.17,12.479-34.6,24.62-51.601,37.35c-54.97,40.881-108.13,84.2-159.52,129.5
		c-3.03,3.15-7.46,0.49-11.04-0.01c-90.67-20.859-182.06-38.52-273.94-53.13c-9.199-1.229-18.319-3.17-27.579-3.87
		c3.35,3.25,7.229,5.86,11.029,8.54c62.811,45.8,124.65,92.94,184.95,142c1.84,1.521,3.64,3.09,5.46,4.65
		c-7.08,7.49-15.04,14.08-22.29,21.399C658.72,615.711,599.76,671.75,540.9,727.89c-1.32,1.16-2.66,2.3-4,3.45
		c-4.92-3.79-9.06-8.44-13.52-12.721C421.23,620.23,318.12,522.74,211.02,429.711c1.79-4.33,3.89-8.521,6.08-12.66
		c28.069-55.04,56.5-109.94,87.58-163.36c3.13-5.57,6.88-10.8,9.529-16.63c-5.21,2.279-10.02,5.34-14.949,8.16
		C241.94,278.25,185.71,313.14,130.4,349.43c-2.99,1.87-5.74,4.35-9.2,5.319c-3.3-1.909-6.03-4.64-9.02-6.97
		c-29.601-23.7-60.261-46.05-91.511-67.51c-3.069-2.09-6.109-4.221-9.08-6.46c6.301-4.641,13.36-8.09,20-12.221
		c88.53-52.18,179.181-100.97,272.971-143.06c3.93-1.82,7.939-3.97,12.399-3.94c65.73,0.07,131.461,2.61,197.011,7.44
		c6.59,0.37,13.16,1.37,19.77,1.05c-1.88-1.149-3.8-2.229-5.819-3.1C489.08,104.11,449.66,89.67,409.86,76.41
		c6.04-2.81,12.5-4.52,18.76-6.74C462.37,58.23,496.171,46.89,530.58,37.59 M534.23,125.09
		c-56.29,24.87-111.46,52.261-165.641,81.431c-17.579,9.67-35.34,19.06-52.59,29.31c4.29,2.83,8.75,5.38,13.17,8
		c37.49,22.44,74.19,46.17,110.4,70.601c32.9,22.06,65.13,45.1,97.47,67.96c5.311-3.391,10.271-7.271,15.421-10.891
		c62.8-44.909,126.649-88.47,192.989-128.029c4.25-2.5,8.65-4.79,12.561-7.841c-69.761-42.3-142.8-79.149-218.04-110.649
		C538.12,124.09,536.04,124.16,534.23,125.09z"/>
	<path fill="#003772" d="M514.47,164.61c24.85-2.29,50.16-0.74,74.34,5.6c15.51,4.04,30.57,10.181,43.96,19.051
		c9.46,6.329,18.09,14.21,23.93,24.06c6.04,10.11,8.74,22.57,5.73,34.12c-3.29,13.649-12.73,24.91-23.561,33.42
		c-16.58,12.81-36.529,20.58-56.85,25.11c-33.41,7.35-68.66,6.62-101.69-2.34c-20.06-5.561-39.619-14.65-54.85-29.12
		c-10.17-10.131-17.99-23.83-17.34-38.58c0.37-15.66,9.739-29.58,21.32-39.471C453.19,176.61,484.19,167.81,514.47,164.61z"/>
	<path fill="#003772" d="M10.31,780.87c13.22-0.649,26.46-0.08,39.689-0.279c9.65-0.15,19.67-0.221,28.7,3.699
		c7.84,3.28,14.55,9.82,16.92,18.12c3.37,11.19,1.99,24.431-5.72,33.561c-4.061,4.93-10.11,7.42-15.88,9.74
		c3.16,1.75,6.7,3.289,8.83,6.359c3.05,4.4,4.779,9.54,6.449,14.59c4.46,14.41,9.08,28.761,13.601,43.15
		c-10.61,0.11-21.22,0.05-31.83,0.04c-3.771-11.73-6.84-23.67-10.38-35.46c-1.62-4.98-3.021-10.47-7.05-14.101
		c-3.511-2.979-8.4-2.579-12.7-2.6c-0.24,17.38,0.02,34.771-0.101,52.15c-10.18,0.01-20.359,0.109-30.54-0.061
		C10.34,866.81,10.33,823.841,10.31,780.87 M39.81,802.69c-0.2,11.04-0.29,22.1,0.05,33.14c6.68-0.069,14.03,0.71,19.95-3.02
		c8.189-5.43,9.51-18.46,3.04-25.65C56.74,801.31,47.55,802.421,39.81,802.69z"/>
	<path fill="#003772" d="M341.17,780.77c9.021-0.32,18.061-0.28,27.08-0.021c0.221,7.98,0.4,15.971-0.109,23.94
		c-8.98,0.01-17.95-0.01-26.931,0.01C341.07,796.72,341.11,788.75,341.17,780.77z"/>
	<path fill="#003772" d="M559.75,780.75c23.83-0.25,47.671-0.26,71.5,0c0.271,7.421,0.29,14.851-0.02,22.28
		c-14.07,0.391-28.15-0.01-42.23,0.17c-0.279,9.94-0.199,19.9-0.05,29.851c13.58,0.3,27.17-0.101,40.75,0.17
		c-0.01,7.52-0.01,15.04,0,22.56c-13.58,0.271-27.17-0.13-40.75,0.17c-0.26,17.96,0.021,35.931-0.109,53.891
		c-9.69,0.04-19.38,0.05-29.07-0.011c-0.42-15.6-0.05-31.22-0.17-46.83C559.711,835.58,559.381,808.16,559.75,780.75z"/>
	<path fill="#003772" d="M772.171,780.77c9.02-0.32,18.05-0.28,27.079-0.021c0.36,29.41,0.04,58.83,0.15,88.25
		c0.13,13.601-0.34,27.221,0.42,40.811c-8.59,0.08-17.18,0.13-25.77-0.03c-0.44-4.3-0.79-8.609-1.11-12.91
		c-2.86,3.761-5.57,7.841-9.62,10.44c-6.14,4-13.939,4.61-21,3.27c-8.49-1.75-15.14-8.399-18.92-15.939
		c-5.04-10.05-6.53-21.5-6.31-32.63c-0.08-11.471,1.979-23.59,8.979-32.971c7.74-10.46,23.15-13.09,34.67-7.85
		c4.94,2.16,8.12,6.69,11.26,10.87C772.37,814.97,771.99,797.87,772.171,780.77 M753.421,838.35c-4.49,2.14-6.341,7.27-7.16,11.86
		c-1.08,6.859-0.811,13.84-0.69,20.76c0.25,5.59,1.061,11.47,4.25,16.22c3.061,4.65,10.351,5.83,14.65,2.24
		c3.109-2.54,4.84-6.34,5.83-10.141c2.22-8.869,2.18-18.18,0.71-27.159c-0.721-4.07-1.96-8.25-4.7-11.44
		C763.18,837.08,757.64,836.65,753.421,838.35z"/>
	<path fill="#003772" d="M1032.98,780.77c9.01-0.3,18.03-0.3,27.05,0c0.351,24.07,0.04,48.15,0.15,72.229
		c-0.11,18.94,0.189,37.891-0.14,56.83c-9.03,0.07-18.061,0.061-27.08,0c-0.33-28.939-0.04-57.89-0.141-86.83
		C1032.93,808.921,1032.61,794.841,1032.98,780.77z"/>
	<path fill="#003772" d="M388.29,801.41c8.82-2.67,17.58-5.56,26.391-8.27c0.119,8.97-0.21,17.95,0.13,26.92
		c5.8,0.11,11.6,0.08,17.4,0.09c0.34,6.29,0.329,12.6,0.01,18.89c-5.79,0.181-11.58,0.141-17.37,0.141
		c-0.42,12.93-0.04,25.88-0.21,38.819c0.14,4.261,0.02,9.7,4.09,12.301c4.38,2.39,9.51,0.55,14.1-0.2
		c0.091,6.64,0.061,13.28,0.021,19.92c-7.21,1.43-14.601,1.3-21.91,1.07c-6.69-0.261-13.59-2.78-17.95-8.04
		c-4.12-5.021-5.44-11.67-5.63-18c-0.24-15.28,0.26-30.57-0.22-45.84c-6.261-0.101-12.521-0.12-18.771,0.06
		c-0.05,23.52,0.26,47.05-0.14,70.56c-9.03,0.07-18.05,0.051-27.07,0.011c-0.03-29.891-0.03-59.79,0-89.681
		c15.63-0.13,31.271,0.15,46.9-0.109C388.2,813.83,388.04,807.62,388.29,801.41z"/>
	<path fill="#003772" d="M123.3,823.25c8.841-4.949,19.53-5.59,29.33-3.689c8.681,1.68,16.681,6.96,21.17,14.65
		c6.881,11.279,7.5,24.97,7.021,37.829c-17.61,0.421-35.24-0.14-52.85,0.261c0.319,5.85,2.359,11.91,7.199,15.569
		c6.04,5.03,14.37,4.841,21.79,4.591c6.36-0.091,12.62-1.341,18.7-3.131c0.1,6.881,0.43,13.75,0.33,20.631
		c-7.27,1.22-14.66,1.229-22.01,1.409c-10.49-0.01-21.5-0.359-30.99-5.39c-9.7-4.9-16.4-14.52-18.95-24.95
		c-3.069-12.43-2.71-25.95,2.2-37.87C109.6,834.95,115.45,827.56,123.3,823.25 M132.54,839.551c-4.01,4.88-4.28,11.529-4.47,17.55
		c9.38,0.42,18.77,0.28,28.15,0.09c-0.29-6.08-0.681-12.75-4.75-17.65C146.97,833.74,137.03,833.75,132.54,839.551z"/>
	<path fill="#003772" d="M200.65,829.66c7.54-7.239,18.07-10.66,28.37-11.01c7.979-0.229,15.95,0.49,23.87,1.4
		c0.069,6.88-0.4,13.76-1.221,20.6c-7.81-0.63-15.989-2.18-23.6,0.43c-7.71,2.881-11.63,11.221-12.37,18.971
		c-1.1,9.239-0.03,20.239,7.9,26.35c8.38,6.561,19.729,4.38,29.52,3.53c0.72,6.66,0.75,13.38,0.68,20.08
		c-9.489,1.95-19.239,1.54-28.85,1.05c-8.84-0.47-17.729-3.62-24.2-9.811c-9.91-9.13-13.939-23.09-13.729-36.25
		C186.84,852.12,191.07,838.62,200.65,829.66z"/>
	<path fill="#003772" d="M263.04,835.04c5.73-8.829,15.521-14.859,25.971-16.069c7.3-0.88,14.899-0.311,21.819,2.279
		c7.71,2.891,13.96,9.061,17.37,16.511c4.96,10.649,5.67,22.7,5.03,34.27c-17.53,0.391-35.08-0.03-52.62,0.181
		c0.08,4.85,1.42,9.779,4.689,13.479c3.44,3.92,8.54,6.15,13.69,6.61c9.75,0.739,19.66-0.021,29.021-2.92
		c0.34,6.88,0.619,13.76,0.319,20.649c-10.71,1.45-21.58,1.51-32.359,1.09c-10.271-0.35-20.801-3.6-28.4-10.739
		c-7.38-6.801-11.18-16.66-12.4-26.46C253.41,860.62,255.39,846.32,263.04,835.04 M284.34,840.37
		c-3.369,4.91-3.779,11.061-3.729,16.841c9.27,0.199,18.55,0.21,27.82-0.011c0.08-6-0.48-12.439-4.181-17.42
		C299.58,833.551,288.56,833.7,284.34,840.37z"/>
	<path fill="#003772" d="M446.97,820.22c14.17-0.771,28.49-2.86,42.62-0.54c7.47,1.34,15.319,4.45,19.689,11
		c3.891,5.649,4.82,12.66,5.05,19.359c0.37,19.921-0.409,39.86,0.49,59.78c-8.21,0.07-16.41,0.11-24.609-0.02
		c-0.37-3.351-0.75-6.69-1.2-10.021c-3.181,2.88-6.23,6.05-10.09,8.04c-7.091,3.63-15.521,4.24-23.2,2.41
		c-8.891-2.18-16.271-9.62-18.19-18.6c-1.899-8.54-0.87-18.32,4.88-25.221c5.261-6.319,13.261-9.529,21.141-11.08
		c8.47-1.84,17.18-1.439,25.79-1.529c-0.011-4.351-0.57-9.101-3.851-12.301c-4.16-4.51-10.85-4.13-16.46-3.93
		c-7.66,0.17-15.04,2.4-22.109,5.19C446.76,835.25,446.69,827.73,446.97,820.22 M467.14,871.12c-6.08,4-7.33,13.24-3.271,19.051
		c5.681,6.489,17.271,4.359,21.69-2.591c4.14-6.1,4.02-13.8,3.65-20.85C481.72,866.61,473.58,866.83,467.14,871.12z"/>
	<path fill="#003772" d="M641.421,834.44c5.96-8.8,15.989-14.63,26.56-15.59c8.22-0.76,16.89,0.09,24.29,3.979
		c6.38,3.341,11.35,9.051,14.229,15.61c4.7,10.49,5.33,22.26,4.74,33.59c-17.66,0.37-35.34,0.021-53,0.15
		c0.721,5.01,1.84,10.31,5.53,14.05c3.45,3.59,8.3,5.63,13.22,6.07c9.75,0.75,19.65-0.03,29.03-2.91c0.31,6.87,0.6,13.75,0.3,20.64
		c-11.05,1.48-22.25,1.54-33.37,1.03c-10.609-0.51-21.45-4.28-28.859-12.13c-6.69-6.99-10-16.54-11.03-26.01
		C631.47,859.69,633.65,845.52,641.421,834.44 M662.75,839.78c-3.72,4.98-4.239,11.42-4.149,17.431
		c9.27,0.199,18.56,0.199,27.83-0.011c0.05-6-0.48-12.439-4.19-17.41C677.74,833.711,667.23,833.631,662.75,839.78z"/>
	<path fill="#003772" d="M816.87,831.93c5.761-6.98,14.13-11.79,23.141-12.891c9.7-1.25,20.22-0.09,28.51,5.471
		c7.4,5,12.13,13.18,14.2,21.76c2.279,8.38,2.33,17.14,2.1,25.77c-17.64,0.37-35.3-0.05-52.939,0.19
		c0.369,5.87,2.359,11.99,7.25,15.65c6.04,5.09,14.399,4.819,21.83,4.58c6.35-0.08,12.619-1.341,18.699-3.131
		c0.09,6.881,0.311,13.761,0.24,20.65c-10.9,1.54-21.979,1.61-32.95,1.07c-10.399-0.53-21.16-3.811-28.63-11.36
		c-8.81-8.74-12.25-21.56-12.22-33.68C805.81,853.91,809.04,841.35,816.87,831.93 M836.54,839.54
		c-3.989,4.931-4.35,11.58-4.72,17.641c9.45,0.24,18.9,0.27,28.351-0.021c-0.46-6.05-0.73-12.699-4.71-17.62
		C850.961,833.78,840.99,833.65,836.54,839.54z"/>
	<path fill="#003772" d="M953.16,820.2c9.931-0.67,19.86-1.5,29.82-1.609c10.09,0.279,21.23,1.31,29.15,8.279
		c6.76,5.971,8.33,15.48,8.489,24.051c0.25,19.64-0.239,39.29,0.32,58.93c-8.19,0.02-16.38,0.08-24.57-0.061
		c-0.3-3.63-0.659-7.25-1.029-10.869c-3.82,4.81-8.66,9.01-14.681,10.729c-9.939,3.09-22,1.9-29.8-5.51
		c-7.22-6.66-9.09-17.44-7.34-26.76c1.37-7.511,6.43-14.091,13.22-17.53c11.82-6.41,25.65-6.11,38.7-6.04
		c0.16-4.85-0.91-10.16-4.85-13.37c-4.351-3.49-10.33-3.01-15.561-2.85c-7.59,0.22-14.92,2.39-21.92,5.189
		C953.15,835.25,953.091,827.72,953.16,820.2 M974.381,870.381c-6.98,3.72-8.771,14.119-3.96,20.199
		c5.859,5.851,16.89,3.82,21.26-2.939c4.149-6.061,4.109-13.69,3.99-20.73C988.47,866.39,980.85,866.89,974.381,870.381z"/>
	<path fill="#003772" d="M891.11,820.16c8.22-0.06,16.43-0.04,24.65-0.01c0.22,4.8,0.529,9.6,1.29,14.36
		c3.489-3.95,5.939-9.08,10.779-11.63c5.46-3.12,11.94-2.841,18.021-2.761c0.04,7.57,0.04,15.15,0,22.721
		c-6.61,0.26-14.19-1.21-19.78,3.22c-5.92,4.71-6.66,12.87-7.09,19.89c-0.33,14.63,0.01,29.261-0.14,43.891
		c-9.021,0.04-18.051,0.05-27.07,0C891.091,879.95,892.28,850.03,891.11,820.16z"/>
</g>
</svg>
